<mxfile host="app.diagrams.net" modified="2024-04-25T18:52:09.153Z" agent="Mozilla/5.0 (Windows NT 10.0; Win64; x64) AppleWebKit/537.36 (KHTML, like Gecko) Chrome/124.0.0.0 Safari/537.36" etag="vfcV0dCYeNpVRBkHZL0C" version="24.2.5" type="github">
  <diagram id="R2lEEEUBdFMjLlhIrx00" name="Page-1">
    <mxGraphModel dx="955" dy="506" grid="1" gridSize="10" guides="1" tooltips="1" connect="1" arrows="1" fold="1" page="1" pageScale="1" pageWidth="850" pageHeight="1100" math="0" shadow="0" extFonts="Permanent Marker^https://fonts.googleapis.com/css?family=Permanent+Marker">
      <root>
        <mxCell id="0" />
        <mxCell id="1" parent="0" />
        <mxCell id="C-vyLk0tnHw3VtMMgP7b-23" value="User" style="shape=table;startSize=40;container=1;collapsible=1;childLayout=tableLayout;fixedRows=1;rowLines=0;fontStyle=1;align=center;resizeLast=1;fillColor=#dae8fc;strokeColor=#6c8ebf;" parent="1" vertex="1">
          <mxGeometry x="130" y="121" width="200" height="349" as="geometry" />
        </mxCell>
        <mxCell id="C-vyLk0tnHw3VtMMgP7b-24" value="" style="shape=partialRectangle;collapsible=0;dropTarget=0;pointerEvents=0;points=[[0,0.5],[1,0.5]];portConstraint=eastwest;top=0;left=0;right=0;bottom=1;" parent="C-vyLk0tnHw3VtMMgP7b-23" vertex="1">
          <mxGeometry y="40" width="200" height="30" as="geometry" />
        </mxCell>
        <mxCell id="C-vyLk0tnHw3VtMMgP7b-25" value="" style="shape=partialRectangle;overflow=hidden;connectable=0;fillColor=none;top=0;left=0;bottom=0;right=0;fontStyle=1;" parent="C-vyLk0tnHw3VtMMgP7b-24" vertex="1">
          <mxGeometry width="30" height="30" as="geometry">
            <mxRectangle width="30" height="30" as="alternateBounds" />
          </mxGeometry>
        </mxCell>
        <mxCell id="C-vyLk0tnHw3VtMMgP7b-26" value="Primary Key ID" style="shape=partialRectangle;overflow=hidden;connectable=0;fillColor=none;top=0;left=0;bottom=0;right=0;align=left;spacingLeft=6;fontStyle=4;" parent="C-vyLk0tnHw3VtMMgP7b-24" vertex="1">
          <mxGeometry x="30" width="170" height="30" as="geometry">
            <mxRectangle width="170" height="30" as="alternateBounds" />
          </mxGeometry>
        </mxCell>
        <mxCell id="eIMBk2BtrGEwLz7ibbDw-9" value="" style="shape=partialRectangle;collapsible=0;dropTarget=0;pointerEvents=0;fillColor=#f5f5f5;points=[[0,0.5],[1,0.5]];portConstraint=eastwest;top=0;left=0;right=0;bottom=0;fontColor=#333333;strokeColor=#666666;" parent="C-vyLk0tnHw3VtMMgP7b-23" vertex="1">
          <mxGeometry y="70" width="200" height="30" as="geometry" />
        </mxCell>
        <mxCell id="eIMBk2BtrGEwLz7ibbDw-10" value="" style="shape=partialRectangle;overflow=hidden;connectable=0;fillColor=none;top=0;left=0;bottom=0;right=0;" parent="eIMBk2BtrGEwLz7ibbDw-9" vertex="1">
          <mxGeometry width="30" height="30" as="geometry">
            <mxRectangle width="30" height="30" as="alternateBounds" />
          </mxGeometry>
        </mxCell>
        <mxCell id="eIMBk2BtrGEwLz7ibbDw-11" value="name " style="shape=partialRectangle;overflow=hidden;connectable=0;fillColor=none;top=0;left=0;bottom=0;right=0;align=left;spacingLeft=6;" parent="eIMBk2BtrGEwLz7ibbDw-9" vertex="1">
          <mxGeometry x="30" width="170" height="30" as="geometry">
            <mxRectangle width="170" height="30" as="alternateBounds" />
          </mxGeometry>
        </mxCell>
        <mxCell id="eIMBk2BtrGEwLz7ibbDw-12" value="" style="shape=partialRectangle;collapsible=0;dropTarget=0;pointerEvents=0;points=[[0,0.5],[1,0.5]];portConstraint=eastwest;top=0;left=0;right=0;bottom=0;" parent="C-vyLk0tnHw3VtMMgP7b-23" vertex="1">
          <mxGeometry y="100" width="200" height="30" as="geometry" />
        </mxCell>
        <mxCell id="eIMBk2BtrGEwLz7ibbDw-13" value="" style="shape=partialRectangle;overflow=hidden;connectable=0;fillColor=none;top=0;left=0;bottom=0;right=0;" parent="eIMBk2BtrGEwLz7ibbDw-12" vertex="1">
          <mxGeometry width="30" height="30" as="geometry">
            <mxRectangle width="30" height="30" as="alternateBounds" />
          </mxGeometry>
        </mxCell>
        <mxCell id="eIMBk2BtrGEwLz7ibbDw-14" value="last name" style="shape=partialRectangle;overflow=hidden;connectable=0;fillColor=none;top=0;left=0;bottom=0;right=0;align=left;spacingLeft=6;" parent="eIMBk2BtrGEwLz7ibbDw-12" vertex="1">
          <mxGeometry x="30" width="170" height="30" as="geometry">
            <mxRectangle width="170" height="30" as="alternateBounds" />
          </mxGeometry>
        </mxCell>
        <mxCell id="eIMBk2BtrGEwLz7ibbDw-15" value="" style="shape=partialRectangle;collapsible=0;dropTarget=0;pointerEvents=0;fillColor=#dae8fc;points=[[0,0.5],[1,0.5]];portConstraint=eastwest;top=0;left=0;right=0;bottom=0;strokeColor=#6c8ebf;" parent="C-vyLk0tnHw3VtMMgP7b-23" vertex="1">
          <mxGeometry y="130" width="200" height="30" as="geometry" />
        </mxCell>
        <mxCell id="eIMBk2BtrGEwLz7ibbDw-16" value="" style="shape=partialRectangle;overflow=hidden;connectable=0;fillColor=#f5f5f5;top=0;left=0;bottom=0;right=0;fontColor=#333333;strokeColor=#666666;" parent="eIMBk2BtrGEwLz7ibbDw-15" vertex="1">
          <mxGeometry width="30" height="30" as="geometry">
            <mxRectangle width="30" height="30" as="alternateBounds" />
          </mxGeometry>
        </mxCell>
        <mxCell id="eIMBk2BtrGEwLz7ibbDw-17" value="Username" style="shape=partialRectangle;overflow=hidden;connectable=0;fillColor=#f5f5f5;top=0;left=0;bottom=0;right=0;align=left;spacingLeft=6;fontColor=#333333;strokeColor=#666666;" parent="eIMBk2BtrGEwLz7ibbDw-15" vertex="1">
          <mxGeometry x="30" width="170" height="30" as="geometry">
            <mxRectangle width="170" height="30" as="alternateBounds" />
          </mxGeometry>
        </mxCell>
        <mxCell id="eIMBk2BtrGEwLz7ibbDw-18" value="" style="shape=partialRectangle;collapsible=0;dropTarget=0;pointerEvents=0;points=[[0,0.5],[1,0.5]];portConstraint=eastwest;top=0;left=0;right=0;bottom=0;" parent="C-vyLk0tnHw3VtMMgP7b-23" vertex="1">
          <mxGeometry y="160" width="200" height="30" as="geometry" />
        </mxCell>
        <mxCell id="eIMBk2BtrGEwLz7ibbDw-19" value="" style="shape=partialRectangle;overflow=hidden;connectable=0;fillColor=none;top=0;left=0;bottom=0;right=0;" parent="eIMBk2BtrGEwLz7ibbDw-18" vertex="1">
          <mxGeometry width="30" height="30" as="geometry">
            <mxRectangle width="30" height="30" as="alternateBounds" />
          </mxGeometry>
        </mxCell>
        <mxCell id="eIMBk2BtrGEwLz7ibbDw-20" value="Email  (U)" style="shape=partialRectangle;overflow=hidden;connectable=0;fillColor=none;top=0;left=0;bottom=0;right=0;align=left;spacingLeft=6;" parent="eIMBk2BtrGEwLz7ibbDw-18" vertex="1">
          <mxGeometry x="30" width="170" height="30" as="geometry">
            <mxRectangle width="170" height="30" as="alternateBounds" />
          </mxGeometry>
        </mxCell>
        <mxCell id="eIMBk2BtrGEwLz7ibbDw-21" value="" style="shape=partialRectangle;collapsible=0;dropTarget=0;pointerEvents=0;fillColor=#f5f5f5;points=[[0,0.5],[1,0.5]];portConstraint=eastwest;top=0;left=0;right=0;bottom=0;fontColor=#333333;strokeColor=#666666;" parent="C-vyLk0tnHw3VtMMgP7b-23" vertex="1">
          <mxGeometry y="190" width="200" height="30" as="geometry" />
        </mxCell>
        <mxCell id="eIMBk2BtrGEwLz7ibbDw-22" value="" style="shape=partialRectangle;overflow=hidden;connectable=0;fillColor=none;top=0;left=0;bottom=0;right=0;" parent="eIMBk2BtrGEwLz7ibbDw-21" vertex="1">
          <mxGeometry width="30" height="30" as="geometry">
            <mxRectangle width="30" height="30" as="alternateBounds" />
          </mxGeometry>
        </mxCell>
        <mxCell id="eIMBk2BtrGEwLz7ibbDw-23" value="Password" style="shape=partialRectangle;overflow=hidden;connectable=0;fillColor=none;top=0;left=0;bottom=0;right=0;align=left;spacingLeft=6;" parent="eIMBk2BtrGEwLz7ibbDw-21" vertex="1">
          <mxGeometry x="30" width="170" height="30" as="geometry">
            <mxRectangle width="170" height="30" as="alternateBounds" />
          </mxGeometry>
        </mxCell>
        <mxCell id="eIMBk2BtrGEwLz7ibbDw-24" value="" style="shape=partialRectangle;collapsible=0;dropTarget=0;pointerEvents=0;points=[[0,0.5],[1,0.5]];portConstraint=eastwest;top=0;left=0;right=0;bottom=0;" parent="C-vyLk0tnHw3VtMMgP7b-23" vertex="1">
          <mxGeometry y="220" width="200" height="30" as="geometry" />
        </mxCell>
        <mxCell id="eIMBk2BtrGEwLz7ibbDw-25" value="" style="shape=partialRectangle;overflow=hidden;connectable=0;fillColor=none;top=0;left=0;bottom=0;right=0;" parent="eIMBk2BtrGEwLz7ibbDw-24" vertex="1">
          <mxGeometry width="30" height="30" as="geometry">
            <mxRectangle width="30" height="30" as="alternateBounds" />
          </mxGeometry>
        </mxCell>
        <mxCell id="eIMBk2BtrGEwLz7ibbDw-26" value="Code" style="shape=partialRectangle;overflow=hidden;connectable=0;fillColor=none;top=0;left=0;bottom=0;right=0;align=left;spacingLeft=6;" parent="eIMBk2BtrGEwLz7ibbDw-24" vertex="1">
          <mxGeometry x="30" width="170" height="30" as="geometry">
            <mxRectangle width="170" height="30" as="alternateBounds" />
          </mxGeometry>
        </mxCell>
        <mxCell id="eIMBk2BtrGEwLz7ibbDw-27" value="" style="shape=partialRectangle;collapsible=0;dropTarget=0;pointerEvents=0;fillColor=#f5f5f5;points=[[0,0.5],[1,0.5]];portConstraint=eastwest;top=0;left=0;right=0;bottom=0;fontColor=#333333;strokeColor=#666666;" parent="C-vyLk0tnHw3VtMMgP7b-23" vertex="1">
          <mxGeometry y="250" width="200" height="30" as="geometry" />
        </mxCell>
        <mxCell id="eIMBk2BtrGEwLz7ibbDw-28" value="" style="shape=partialRectangle;overflow=hidden;connectable=0;fillColor=none;top=0;left=0;bottom=0;right=0;" parent="eIMBk2BtrGEwLz7ibbDw-27" vertex="1">
          <mxGeometry width="30" height="30" as="geometry">
            <mxRectangle width="30" height="30" as="alternateBounds" />
          </mxGeometry>
        </mxCell>
        <mxCell id="eIMBk2BtrGEwLz7ibbDw-29" value="Is_Active (Bool)" style="shape=partialRectangle;overflow=hidden;connectable=0;fillColor=none;top=0;left=0;bottom=0;right=0;align=left;spacingLeft=6;" parent="eIMBk2BtrGEwLz7ibbDw-27" vertex="1">
          <mxGeometry x="30" width="170" height="30" as="geometry">
            <mxRectangle width="170" height="30" as="alternateBounds" />
          </mxGeometry>
        </mxCell>
        <mxCell id="eIMBk2BtrGEwLz7ibbDw-30" value="" style="shape=partialRectangle;collapsible=0;dropTarget=0;pointerEvents=0;points=[[0,0.5],[1,0.5]];portConstraint=eastwest;top=0;left=0;right=0;bottom=0;" parent="C-vyLk0tnHw3VtMMgP7b-23" vertex="1">
          <mxGeometry y="280" width="200" height="39" as="geometry" />
        </mxCell>
        <mxCell id="eIMBk2BtrGEwLz7ibbDw-31" value="" style="shape=partialRectangle;overflow=hidden;connectable=0;fillColor=none;top=0;left=0;bottom=0;right=0;" parent="eIMBk2BtrGEwLz7ibbDw-30" vertex="1">
          <mxGeometry width="30" height="39" as="geometry">
            <mxRectangle width="30" height="39" as="alternateBounds" />
          </mxGeometry>
        </mxCell>
        <mxCell id="eIMBk2BtrGEwLz7ibbDw-32" value="Is_admin (Bool)" style="shape=partialRectangle;overflow=hidden;connectable=0;fillColor=none;top=0;left=0;bottom=0;right=0;align=left;spacingLeft=6;" parent="eIMBk2BtrGEwLz7ibbDw-30" vertex="1">
          <mxGeometry x="30" width="170" height="39" as="geometry">
            <mxRectangle width="170" height="39" as="alternateBounds" />
          </mxGeometry>
        </mxCell>
        <mxCell id="C-vyLk0tnHw3VtMMgP7b-27" value="" style="shape=partialRectangle;collapsible=0;dropTarget=0;pointerEvents=0;fillColor=#f5f5f5;points=[[0,0.5],[1,0.5]];portConstraint=eastwest;top=0;left=0;right=0;bottom=0;fontColor=#333333;strokeColor=#666666;" parent="C-vyLk0tnHw3VtMMgP7b-23" vertex="1">
          <mxGeometry y="319" width="200" height="30" as="geometry" />
        </mxCell>
        <mxCell id="C-vyLk0tnHw3VtMMgP7b-28" value="" style="shape=partialRectangle;overflow=hidden;connectable=0;fillColor=none;top=0;left=0;bottom=0;right=0;" parent="C-vyLk0tnHw3VtMMgP7b-27" vertex="1">
          <mxGeometry width="30" height="30" as="geometry">
            <mxRectangle width="30" height="30" as="alternateBounds" />
          </mxGeometry>
        </mxCell>
        <mxCell id="C-vyLk0tnHw3VtMMgP7b-29" value="CreatedAt (date)" style="shape=partialRectangle;overflow=hidden;connectable=0;fillColor=none;top=0;left=0;bottom=0;right=0;align=left;spacingLeft=6;" parent="C-vyLk0tnHw3VtMMgP7b-27" vertex="1">
          <mxGeometry x="30" width="170" height="30" as="geometry">
            <mxRectangle width="170" height="30" as="alternateBounds" />
          </mxGeometry>
        </mxCell>
        <mxCell id="eIMBk2BtrGEwLz7ibbDw-5" value="" style="shape=partialRectangle;overflow=hidden;connectable=0;fillColor=none;top=0;left=0;bottom=0;right=0;fontStyle=1;" parent="1" vertex="1">
          <mxGeometry x="120" y="180" width="30" height="30" as="geometry">
            <mxRectangle width="30" height="30" as="alternateBounds" />
          </mxGeometry>
        </mxCell>
        <mxCell id="eIMBk2BtrGEwLz7ibbDw-33" value="User_Response" style="shape=table;startSize=40;container=1;collapsible=1;childLayout=tableLayout;fixedRows=1;rowLines=0;fontStyle=1;align=center;resizeLast=1;fillColor=#dae8fc;strokeColor=#6c8ebf;" parent="1" vertex="1">
          <mxGeometry x="490" y="130" width="250" height="160" as="geometry" />
        </mxCell>
        <mxCell id="eIMBk2BtrGEwLz7ibbDw-34" value="" style="shape=partialRectangle;collapsible=0;dropTarget=0;pointerEvents=0;points=[[0,0.5],[1,0.5]];portConstraint=eastwest;top=0;left=0;right=0;bottom=1;" parent="eIMBk2BtrGEwLz7ibbDw-33" vertex="1">
          <mxGeometry y="40" width="250" height="30" as="geometry" />
        </mxCell>
        <mxCell id="eIMBk2BtrGEwLz7ibbDw-35" value="" style="shape=partialRectangle;overflow=hidden;connectable=0;fillColor=none;top=0;left=0;bottom=0;right=0;fontStyle=1;" parent="eIMBk2BtrGEwLz7ibbDw-34" vertex="1">
          <mxGeometry width="30" height="30" as="geometry">
            <mxRectangle width="30" height="30" as="alternateBounds" />
          </mxGeometry>
        </mxCell>
        <mxCell id="eIMBk2BtrGEwLz7ibbDw-36" value="ID Primary Key" style="shape=partialRectangle;overflow=hidden;connectable=0;fillColor=none;top=0;left=0;bottom=0;right=0;align=left;spacingLeft=6;fontStyle=4;" parent="eIMBk2BtrGEwLz7ibbDw-34" vertex="1">
          <mxGeometry x="30" width="220" height="30" as="geometry">
            <mxRectangle width="220" height="30" as="alternateBounds" />
          </mxGeometry>
        </mxCell>
        <mxCell id="eIMBk2BtrGEwLz7ibbDw-37" value="" style="shape=partialRectangle;collapsible=0;dropTarget=0;pointerEvents=0;fillColor=#f5f5f5;points=[[0,0.5],[1,0.5]];portConstraint=eastwest;top=0;left=0;right=0;bottom=0;fontColor=#333333;strokeColor=#666666;" parent="eIMBk2BtrGEwLz7ibbDw-33" vertex="1">
          <mxGeometry y="70" width="250" height="30" as="geometry" />
        </mxCell>
        <mxCell id="eIMBk2BtrGEwLz7ibbDw-38" value="" style="shape=partialRectangle;overflow=hidden;connectable=0;fillColor=none;top=0;left=0;bottom=0;right=0;" parent="eIMBk2BtrGEwLz7ibbDw-37" vertex="1">
          <mxGeometry width="30" height="30" as="geometry">
            <mxRectangle width="30" height="30" as="alternateBounds" />
          </mxGeometry>
        </mxCell>
        <mxCell id="eIMBk2BtrGEwLz7ibbDw-39" value="Email (FK)" style="shape=partialRectangle;overflow=hidden;connectable=0;fillColor=none;top=0;left=0;bottom=0;right=0;align=left;spacingLeft=6;" parent="eIMBk2BtrGEwLz7ibbDw-37" vertex="1">
          <mxGeometry x="30" width="220" height="30" as="geometry">
            <mxRectangle width="220" height="30" as="alternateBounds" />
          </mxGeometry>
        </mxCell>
        <mxCell id="eIMBk2BtrGEwLz7ibbDw-40" value="" style="shape=partialRectangle;collapsible=0;dropTarget=0;pointerEvents=0;points=[[0,0.5],[1,0.5]];portConstraint=eastwest;top=0;left=0;right=0;bottom=0;" parent="eIMBk2BtrGEwLz7ibbDw-33" vertex="1">
          <mxGeometry y="100" width="250" height="30" as="geometry" />
        </mxCell>
        <mxCell id="eIMBk2BtrGEwLz7ibbDw-41" value="" style="shape=partialRectangle;overflow=hidden;connectable=0;fillColor=none;top=0;left=0;bottom=0;right=0;" parent="eIMBk2BtrGEwLz7ibbDw-40" vertex="1">
          <mxGeometry width="30" height="30" as="geometry">
            <mxRectangle width="30" height="30" as="alternateBounds" />
          </mxGeometry>
        </mxCell>
        <mxCell id="eIMBk2BtrGEwLz7ibbDw-42" value="Response" style="shape=partialRectangle;overflow=hidden;connectable=0;fillColor=none;top=0;left=0;bottom=0;right=0;align=left;spacingLeft=6;" parent="eIMBk2BtrGEwLz7ibbDw-40" vertex="1">
          <mxGeometry x="30" width="220" height="30" as="geometry">
            <mxRectangle width="220" height="30" as="alternateBounds" />
          </mxGeometry>
        </mxCell>
        <mxCell id="eIMBk2BtrGEwLz7ibbDw-43" value="" style="shape=partialRectangle;collapsible=0;dropTarget=0;pointerEvents=0;fillColor=#dae8fc;points=[[0,0.5],[1,0.5]];portConstraint=eastwest;top=0;left=0;right=0;bottom=0;strokeColor=#6c8ebf;" parent="eIMBk2BtrGEwLz7ibbDw-33" vertex="1">
          <mxGeometry y="130" width="250" height="30" as="geometry" />
        </mxCell>
        <mxCell id="eIMBk2BtrGEwLz7ibbDw-44" value="" style="shape=partialRectangle;overflow=hidden;connectable=0;fillColor=#f5f5f5;top=0;left=0;bottom=0;right=0;fontColor=#333333;strokeColor=#666666;" parent="eIMBk2BtrGEwLz7ibbDw-43" vertex="1">
          <mxGeometry width="30" height="30" as="geometry">
            <mxRectangle width="30" height="30" as="alternateBounds" />
          </mxGeometry>
        </mxCell>
        <mxCell id="eIMBk2BtrGEwLz7ibbDw-45" value="SentimentScore" style="shape=partialRectangle;overflow=hidden;connectable=0;fillColor=#f5f5f5;top=0;left=0;bottom=0;right=0;align=left;spacingLeft=6;fontColor=#333333;strokeColor=#666666;" parent="eIMBk2BtrGEwLz7ibbDw-43" vertex="1">
          <mxGeometry x="30" width="220" height="30" as="geometry">
            <mxRectangle width="220" height="30" as="alternateBounds" />
          </mxGeometry>
        </mxCell>
        <mxCell id="eIMBk2BtrGEwLz7ibbDw-68" value="Profile" style="shape=table;startSize=40;container=1;collapsible=1;childLayout=tableLayout;fixedRows=1;rowLines=0;fontStyle=1;align=center;resizeLast=1;fillColor=#dae8fc;strokeColor=#6c8ebf;" parent="1" vertex="1">
          <mxGeometry x="910" y="80" width="230" height="500" as="geometry" />
        </mxCell>
        <mxCell id="eIMBk2BtrGEwLz7ibbDw-69" value="" style="shape=partialRectangle;collapsible=0;dropTarget=0;pointerEvents=0;points=[[0,0.5],[1,0.5]];portConstraint=eastwest;top=0;left=0;right=0;bottom=1;" parent="eIMBk2BtrGEwLz7ibbDw-68" vertex="1">
          <mxGeometry y="40" width="230" height="30" as="geometry" />
        </mxCell>
        <mxCell id="eIMBk2BtrGEwLz7ibbDw-70" value="" style="shape=partialRectangle;overflow=hidden;connectable=0;fillColor=none;top=0;left=0;bottom=0;right=0;fontStyle=1;" parent="eIMBk2BtrGEwLz7ibbDw-69" vertex="1">
          <mxGeometry width="20" height="30" as="geometry">
            <mxRectangle width="20" height="30" as="alternateBounds" />
          </mxGeometry>
        </mxCell>
        <mxCell id="eIMBk2BtrGEwLz7ibbDw-71" value="UserID (PK FK)" style="shape=partialRectangle;overflow=hidden;connectable=0;fillColor=none;top=0;left=0;bottom=0;right=0;align=left;spacingLeft=6;fontStyle=4;" parent="eIMBk2BtrGEwLz7ibbDw-69" vertex="1">
          <mxGeometry x="20" width="210" height="30" as="geometry">
            <mxRectangle width="210" height="30" as="alternateBounds" />
          </mxGeometry>
        </mxCell>
        <mxCell id="eIMBk2BtrGEwLz7ibbDw-72" value="" style="shape=partialRectangle;collapsible=0;dropTarget=0;pointerEvents=0;fillColor=#f5f5f5;points=[[0,0.5],[1,0.5]];portConstraint=eastwest;top=0;left=0;right=0;bottom=0;fontColor=#333333;strokeColor=#666666;" parent="eIMBk2BtrGEwLz7ibbDw-68" vertex="1">
          <mxGeometry y="70" width="230" height="30" as="geometry" />
        </mxCell>
        <mxCell id="eIMBk2BtrGEwLz7ibbDw-73" value="" style="shape=partialRectangle;overflow=hidden;connectable=0;fillColor=none;top=0;left=0;bottom=0;right=0;" parent="eIMBk2BtrGEwLz7ibbDw-72" vertex="1">
          <mxGeometry width="20" height="30" as="geometry">
            <mxRectangle width="20" height="30" as="alternateBounds" />
          </mxGeometry>
        </mxCell>
        <mxCell id="eIMBk2BtrGEwLz7ibbDw-74" value="DayOfBirth (Date)    " style="shape=partialRectangle;overflow=hidden;connectable=0;fillColor=none;top=0;left=0;bottom=0;right=0;align=left;spacingLeft=6;" parent="eIMBk2BtrGEwLz7ibbDw-72" vertex="1">
          <mxGeometry x="20" width="210" height="30" as="geometry">
            <mxRectangle width="210" height="30" as="alternateBounds" />
          </mxGeometry>
        </mxCell>
        <mxCell id="eIMBk2BtrGEwLz7ibbDw-75" value="" style="shape=partialRectangle;collapsible=0;dropTarget=0;pointerEvents=0;points=[[0,0.5],[1,0.5]];portConstraint=eastwest;top=0;left=0;right=0;bottom=0;" parent="eIMBk2BtrGEwLz7ibbDw-68" vertex="1">
          <mxGeometry y="100" width="230" height="30" as="geometry" />
        </mxCell>
        <mxCell id="eIMBk2BtrGEwLz7ibbDw-76" value="" style="shape=partialRectangle;overflow=hidden;connectable=0;fillColor=none;top=0;left=0;bottom=0;right=0;" parent="eIMBk2BtrGEwLz7ibbDw-75" vertex="1">
          <mxGeometry width="20" height="30" as="geometry">
            <mxRectangle width="20" height="30" as="alternateBounds" />
          </mxGeometry>
        </mxCell>
        <mxCell id="eIMBk2BtrGEwLz7ibbDw-77" value="Gender" style="shape=partialRectangle;overflow=hidden;connectable=0;fillColor=none;top=0;left=0;bottom=0;right=0;align=left;spacingLeft=6;" parent="eIMBk2BtrGEwLz7ibbDw-75" vertex="1">
          <mxGeometry x="20" width="210" height="30" as="geometry">
            <mxRectangle width="210" height="30" as="alternateBounds" />
          </mxGeometry>
        </mxCell>
        <mxCell id="eIMBk2BtrGEwLz7ibbDw-78" value="" style="shape=partialRectangle;collapsible=0;dropTarget=0;pointerEvents=0;fillColor=#dae8fc;points=[[0,0.5],[1,0.5]];portConstraint=eastwest;top=0;left=0;right=0;bottom=0;strokeColor=#6c8ebf;" parent="eIMBk2BtrGEwLz7ibbDw-68" vertex="1">
          <mxGeometry y="130" width="230" height="30" as="geometry" />
        </mxCell>
        <mxCell id="eIMBk2BtrGEwLz7ibbDw-79" value="" style="shape=partialRectangle;overflow=hidden;connectable=0;fillColor=#f5f5f5;top=0;left=0;bottom=0;right=0;fontColor=#333333;strokeColor=#666666;" parent="eIMBk2BtrGEwLz7ibbDw-78" vertex="1">
          <mxGeometry width="20" height="30" as="geometry">
            <mxRectangle width="20" height="30" as="alternateBounds" />
          </mxGeometry>
        </mxCell>
        <mxCell id="eIMBk2BtrGEwLz7ibbDw-80" value="CountryID (FK)" style="shape=partialRectangle;overflow=hidden;connectable=0;fillColor=#f5f5f5;top=0;left=0;bottom=0;right=0;align=left;spacingLeft=6;fontColor=#333333;strokeColor=#666666;" parent="eIMBk2BtrGEwLz7ibbDw-78" vertex="1">
          <mxGeometry x="20" width="210" height="30" as="geometry">
            <mxRectangle width="210" height="30" as="alternateBounds" />
          </mxGeometry>
        </mxCell>
        <mxCell id="eIMBk2BtrGEwLz7ibbDw-81" value="" style="shape=partialRectangle;collapsible=0;dropTarget=0;pointerEvents=0;points=[[0,0.5],[1,0.5]];portConstraint=eastwest;top=0;left=0;right=0;bottom=0;" parent="eIMBk2BtrGEwLz7ibbDw-68" vertex="1">
          <mxGeometry y="160" width="230" height="30" as="geometry" />
        </mxCell>
        <mxCell id="eIMBk2BtrGEwLz7ibbDw-82" value="" style="shape=partialRectangle;overflow=hidden;connectable=0;fillColor=none;top=0;left=0;bottom=0;right=0;" parent="eIMBk2BtrGEwLz7ibbDw-81" vertex="1">
          <mxGeometry width="20" height="30" as="geometry">
            <mxRectangle width="20" height="30" as="alternateBounds" />
          </mxGeometry>
        </mxCell>
        <mxCell id="eIMBk2BtrGEwLz7ibbDw-83" value="Image (varchar)" style="shape=partialRectangle;overflow=hidden;connectable=0;fillColor=none;top=0;left=0;bottom=0;right=0;align=left;spacingLeft=6;" parent="eIMBk2BtrGEwLz7ibbDw-81" vertex="1">
          <mxGeometry x="20" width="210" height="30" as="geometry">
            <mxRectangle width="210" height="30" as="alternateBounds" />
          </mxGeometry>
        </mxCell>
        <mxCell id="eIMBk2BtrGEwLz7ibbDw-84" value="" style="shape=partialRectangle;collapsible=0;dropTarget=0;pointerEvents=0;fillColor=#f5f5f5;points=[[0,0.5],[1,0.5]];portConstraint=eastwest;top=0;left=0;right=0;bottom=0;fontColor=#333333;strokeColor=#666666;" parent="eIMBk2BtrGEwLz7ibbDw-68" vertex="1">
          <mxGeometry y="190" width="230" height="30" as="geometry" />
        </mxCell>
        <mxCell id="eIMBk2BtrGEwLz7ibbDw-85" value="" style="shape=partialRectangle;overflow=hidden;connectable=0;fillColor=none;top=0;left=0;bottom=0;right=0;" parent="eIMBk2BtrGEwLz7ibbDw-84" vertex="1">
          <mxGeometry width="20" height="30" as="geometry">
            <mxRectangle width="20" height="30" as="alternateBounds" />
          </mxGeometry>
        </mxCell>
        <mxCell id="eIMBk2BtrGEwLz7ibbDw-86" value="ImageHeader" style="shape=partialRectangle;overflow=hidden;connectable=0;fillColor=none;top=0;left=0;bottom=0;right=0;align=left;spacingLeft=6;" parent="eIMBk2BtrGEwLz7ibbDw-84" vertex="1">
          <mxGeometry x="20" width="210" height="30" as="geometry">
            <mxRectangle width="210" height="30" as="alternateBounds" />
          </mxGeometry>
        </mxCell>
        <mxCell id="eIMBk2BtrGEwLz7ibbDw-87" value="" style="shape=partialRectangle;collapsible=0;dropTarget=0;pointerEvents=0;points=[[0,0.5],[1,0.5]];portConstraint=eastwest;top=0;left=0;right=0;bottom=0;" parent="eIMBk2BtrGEwLz7ibbDw-68" vertex="1">
          <mxGeometry y="220" width="230" height="30" as="geometry" />
        </mxCell>
        <mxCell id="eIMBk2BtrGEwLz7ibbDw-88" value="" style="shape=partialRectangle;overflow=hidden;connectable=0;fillColor=none;top=0;left=0;bottom=0;right=0;" parent="eIMBk2BtrGEwLz7ibbDw-87" vertex="1">
          <mxGeometry width="20" height="30" as="geometry">
            <mxRectangle width="20" height="30" as="alternateBounds" />
          </mxGeometry>
        </mxCell>
        <mxCell id="eIMBk2BtrGEwLz7ibbDw-89" value="Title" style="shape=partialRectangle;overflow=hidden;connectable=0;fillColor=none;top=0;left=0;bottom=0;right=0;align=left;spacingLeft=6;" parent="eIMBk2BtrGEwLz7ibbDw-87" vertex="1">
          <mxGeometry x="20" width="210" height="30" as="geometry">
            <mxRectangle width="210" height="30" as="alternateBounds" />
          </mxGeometry>
        </mxCell>
        <mxCell id="eIMBk2BtrGEwLz7ibbDw-90" value="" style="shape=partialRectangle;collapsible=0;dropTarget=0;pointerEvents=0;fillColor=#f5f5f5;points=[[0,0.5],[1,0.5]];portConstraint=eastwest;top=0;left=0;right=0;bottom=0;fontColor=#333333;strokeColor=#666666;" parent="eIMBk2BtrGEwLz7ibbDw-68" vertex="1">
          <mxGeometry y="250" width="230" height="30" as="geometry" />
        </mxCell>
        <mxCell id="eIMBk2BtrGEwLz7ibbDw-91" value="" style="shape=partialRectangle;overflow=hidden;connectable=0;fillColor=none;top=0;left=0;bottom=0;right=0;" parent="eIMBk2BtrGEwLz7ibbDw-90" vertex="1">
          <mxGeometry width="20" height="30" as="geometry">
            <mxRectangle width="20" height="30" as="alternateBounds" />
          </mxGeometry>
        </mxCell>
        <mxCell id="eIMBk2BtrGEwLz7ibbDw-92" value="Bio" style="shape=partialRectangle;overflow=hidden;connectable=0;fillColor=none;top=0;left=0;bottom=0;right=0;align=left;spacingLeft=6;" parent="eIMBk2BtrGEwLz7ibbDw-90" vertex="1">
          <mxGeometry x="20" width="210" height="30" as="geometry">
            <mxRectangle width="210" height="30" as="alternateBounds" />
          </mxGeometry>
        </mxCell>
        <mxCell id="eIMBk2BtrGEwLz7ibbDw-93" value="" style="shape=partialRectangle;collapsible=0;dropTarget=0;pointerEvents=0;points=[[0,0.5],[1,0.5]];portConstraint=eastwest;top=0;left=0;right=0;bottom=0;" parent="eIMBk2BtrGEwLz7ibbDw-68" vertex="1">
          <mxGeometry y="280" width="230" height="39" as="geometry" />
        </mxCell>
        <mxCell id="eIMBk2BtrGEwLz7ibbDw-94" value="" style="shape=partialRectangle;overflow=hidden;connectable=0;fillColor=none;top=0;left=0;bottom=0;right=0;" parent="eIMBk2BtrGEwLz7ibbDw-93" vertex="1">
          <mxGeometry width="20" height="39" as="geometry">
            <mxRectangle width="20" height="39" as="alternateBounds" />
          </mxGeometry>
        </mxCell>
        <mxCell id="eIMBk2BtrGEwLz7ibbDw-95" value="Likes (text)" style="shape=partialRectangle;overflow=hidden;connectable=0;fillColor=none;top=0;left=0;bottom=0;right=0;align=left;spacingLeft=6;" parent="eIMBk2BtrGEwLz7ibbDw-93" vertex="1">
          <mxGeometry x="20" width="210" height="39" as="geometry">
            <mxRectangle width="210" height="39" as="alternateBounds" />
          </mxGeometry>
        </mxCell>
        <mxCell id="eIMBk2BtrGEwLz7ibbDw-108" value="" style="shape=partialRectangle;collapsible=0;dropTarget=0;pointerEvents=0;fillColor=#f5f5f5;points=[[0,0.5],[1,0.5]];portConstraint=eastwest;top=0;left=0;right=0;bottom=0;fontColor=#333333;strokeColor=#666666;" parent="eIMBk2BtrGEwLz7ibbDw-68" vertex="1">
          <mxGeometry y="319" width="230" height="30" as="geometry" />
        </mxCell>
        <mxCell id="eIMBk2BtrGEwLz7ibbDw-109" value="" style="shape=partialRectangle;overflow=hidden;connectable=0;fillColor=none;top=0;left=0;bottom=0;right=0;" parent="eIMBk2BtrGEwLz7ibbDw-108" vertex="1">
          <mxGeometry width="20" height="30" as="geometry">
            <mxRectangle width="20" height="30" as="alternateBounds" />
          </mxGeometry>
        </mxCell>
        <mxCell id="eIMBk2BtrGEwLz7ibbDw-110" value="Dislikes" style="shape=partialRectangle;overflow=hidden;connectable=0;fillColor=none;top=0;left=0;bottom=0;right=0;align=left;spacingLeft=6;" parent="eIMBk2BtrGEwLz7ibbDw-108" vertex="1">
          <mxGeometry x="20" width="210" height="30" as="geometry">
            <mxRectangle width="210" height="30" as="alternateBounds" />
          </mxGeometry>
        </mxCell>
        <mxCell id="eIMBk2BtrGEwLz7ibbDw-111" value="" style="shape=partialRectangle;collapsible=0;dropTarget=0;pointerEvents=0;points=[[0,0.5],[1,0.5]];portConstraint=eastwest;top=0;left=0;right=0;bottom=0;" parent="eIMBk2BtrGEwLz7ibbDw-68" vertex="1">
          <mxGeometry y="349" width="230" height="30" as="geometry" />
        </mxCell>
        <mxCell id="eIMBk2BtrGEwLz7ibbDw-112" value="" style="shape=partialRectangle;overflow=hidden;connectable=0;fillColor=none;top=0;left=0;bottom=0;right=0;" parent="eIMBk2BtrGEwLz7ibbDw-111" vertex="1">
          <mxGeometry width="20" height="30" as="geometry">
            <mxRectangle width="20" height="30" as="alternateBounds" />
          </mxGeometry>
        </mxCell>
        <mxCell id="eIMBk2BtrGEwLz7ibbDw-113" value="Address" style="shape=partialRectangle;overflow=hidden;connectable=0;fillColor=none;top=0;left=0;bottom=0;right=0;align=left;spacingLeft=6;" parent="eIMBk2BtrGEwLz7ibbDw-111" vertex="1">
          <mxGeometry x="20" width="210" height="30" as="geometry">
            <mxRectangle width="210" height="30" as="alternateBounds" />
          </mxGeometry>
        </mxCell>
        <mxCell id="eIMBk2BtrGEwLz7ibbDw-114" value="" style="shape=partialRectangle;collapsible=0;dropTarget=0;pointerEvents=0;fillColor=#f5f5f5;points=[[0,0.5],[1,0.5]];portConstraint=eastwest;top=0;left=0;right=0;bottom=0;fontColor=#333333;strokeColor=#666666;" parent="eIMBk2BtrGEwLz7ibbDw-68" vertex="1">
          <mxGeometry y="379" width="230" height="30" as="geometry" />
        </mxCell>
        <mxCell id="eIMBk2BtrGEwLz7ibbDw-115" value="" style="shape=partialRectangle;overflow=hidden;connectable=0;fillColor=none;top=0;left=0;bottom=0;right=0;" parent="eIMBk2BtrGEwLz7ibbDw-114" vertex="1">
          <mxGeometry width="20" height="30" as="geometry">
            <mxRectangle width="20" height="30" as="alternateBounds" />
          </mxGeometry>
        </mxCell>
        <mxCell id="eIMBk2BtrGEwLz7ibbDw-116" value="Phone" style="shape=partialRectangle;overflow=hidden;connectable=0;fillColor=none;top=0;left=0;bottom=0;right=0;align=left;spacingLeft=6;" parent="eIMBk2BtrGEwLz7ibbDw-114" vertex="1">
          <mxGeometry x="20" width="210" height="30" as="geometry">
            <mxRectangle width="210" height="30" as="alternateBounds" />
          </mxGeometry>
        </mxCell>
        <mxCell id="eIMBk2BtrGEwLz7ibbDw-117" value="" style="shape=partialRectangle;collapsible=0;dropTarget=0;pointerEvents=0;points=[[0,0.5],[1,0.5]];portConstraint=eastwest;top=0;left=0;right=0;bottom=0;" parent="eIMBk2BtrGEwLz7ibbDw-68" vertex="1">
          <mxGeometry y="409" width="230" height="30" as="geometry" />
        </mxCell>
        <mxCell id="eIMBk2BtrGEwLz7ibbDw-118" value="" style="shape=partialRectangle;overflow=hidden;connectable=0;fillColor=none;top=0;left=0;bottom=0;right=0;" parent="eIMBk2BtrGEwLz7ibbDw-117" vertex="1">
          <mxGeometry width="20" height="30" as="geometry">
            <mxRectangle width="20" height="30" as="alternateBounds" />
          </mxGeometry>
        </mxCell>
        <mxCell id="eIMBk2BtrGEwLz7ibbDw-119" value="PublicEmail" style="shape=partialRectangle;overflow=hidden;connectable=0;fillColor=none;top=0;left=0;bottom=0;right=0;align=left;spacingLeft=6;" parent="eIMBk2BtrGEwLz7ibbDw-117" vertex="1">
          <mxGeometry x="20" width="210" height="30" as="geometry">
            <mxRectangle width="210" height="30" as="alternateBounds" />
          </mxGeometry>
        </mxCell>
        <mxCell id="eIMBk2BtrGEwLz7ibbDw-120" value="" style="shape=partialRectangle;collapsible=0;dropTarget=0;pointerEvents=0;fillColor=#f5f5f5;points=[[0,0.5],[1,0.5]];portConstraint=eastwest;top=0;left=0;right=0;bottom=0;fontColor=#333333;strokeColor=#666666;" parent="eIMBk2BtrGEwLz7ibbDw-68" vertex="1">
          <mxGeometry y="439" width="230" height="30" as="geometry" />
        </mxCell>
        <mxCell id="eIMBk2BtrGEwLz7ibbDw-121" value="" style="shape=partialRectangle;overflow=hidden;connectable=0;fillColor=none;top=0;left=0;bottom=0;right=0;" parent="eIMBk2BtrGEwLz7ibbDw-120" vertex="1">
          <mxGeometry width="20" height="30" as="geometry">
            <mxRectangle width="20" height="30" as="alternateBounds" />
          </mxGeometry>
        </mxCell>
        <mxCell id="eIMBk2BtrGEwLz7ibbDw-122" value="LevelID (FK)" style="shape=partialRectangle;overflow=hidden;connectable=0;fillColor=none;top=0;left=0;bottom=0;right=0;align=left;spacingLeft=6;" parent="eIMBk2BtrGEwLz7ibbDw-120" vertex="1">
          <mxGeometry x="20" width="210" height="30" as="geometry">
            <mxRectangle width="210" height="30" as="alternateBounds" />
          </mxGeometry>
        </mxCell>
        <mxCell id="eIMBk2BtrGEwLz7ibbDw-123" value="" style="shape=partialRectangle;collapsible=0;dropTarget=0;pointerEvents=0;points=[[0,0.5],[1,0.5]];portConstraint=eastwest;top=0;left=0;right=0;bottom=0;" parent="eIMBk2BtrGEwLz7ibbDw-68" vertex="1">
          <mxGeometry y="469" width="230" height="31" as="geometry" />
        </mxCell>
        <mxCell id="eIMBk2BtrGEwLz7ibbDw-124" value="" style="shape=partialRectangle;overflow=hidden;connectable=0;fillColor=none;top=0;left=0;bottom=0;right=0;" parent="eIMBk2BtrGEwLz7ibbDw-123" vertex="1">
          <mxGeometry width="20" height="31" as="geometry">
            <mxRectangle width="20" height="31" as="alternateBounds" />
          </mxGeometry>
        </mxCell>
        <mxCell id="eIMBk2BtrGEwLz7ibbDw-125" value="Sentimental (ID)" style="shape=partialRectangle;overflow=hidden;connectable=0;fillColor=none;top=0;left=0;bottom=0;right=0;align=left;spacingLeft=6;" parent="eIMBk2BtrGEwLz7ibbDw-123" vertex="1">
          <mxGeometry x="20" width="210" height="31" as="geometry">
            <mxRectangle width="210" height="31" as="alternateBounds" />
          </mxGeometry>
        </mxCell>
        <mxCell id="eIMBk2BtrGEwLz7ibbDw-100" value="" style="endArrow=classic;html=1;rounded=0;" parent="1" edge="1">
          <mxGeometry relative="1" as="geometry">
            <mxPoint x="330" y="240" as="sourcePoint" />
            <mxPoint x="480" y="430" as="targetPoint" />
            <Array as="points">
              <mxPoint x="400" y="240" />
              <mxPoint x="400" y="430" />
            </Array>
          </mxGeometry>
        </mxCell>
        <mxCell id="eIMBk2BtrGEwLz7ibbDw-102" value="1" style="edgeLabel;resizable=0;html=1;;align=left;verticalAlign=bottom;" parent="eIMBk2BtrGEwLz7ibbDw-100" connectable="0" vertex="1">
          <mxGeometry x="-1" relative="1" as="geometry" />
        </mxCell>
        <mxCell id="eIMBk2BtrGEwLz7ibbDw-103" value="n" style="edgeLabel;resizable=0;html=1;;align=right;verticalAlign=bottom;" parent="eIMBk2BtrGEwLz7ibbDw-100" connectable="0" vertex="1">
          <mxGeometry x="1" relative="1" as="geometry">
            <mxPoint x="-20" as="offset" />
          </mxGeometry>
        </mxCell>
        <mxCell id="eIMBk2BtrGEwLz7ibbDw-105" value="" style="endArrow=classic;html=1;rounded=0;" parent="1" edge="1">
          <mxGeometry relative="1" as="geometry">
            <mxPoint x="740" y="199.5" as="sourcePoint" />
            <mxPoint x="900" y="199.5" as="targetPoint" />
          </mxGeometry>
        </mxCell>
        <mxCell id="eIMBk2BtrGEwLz7ibbDw-106" value="1" style="edgeLabel;resizable=0;html=1;;align=left;verticalAlign=bottom;" parent="eIMBk2BtrGEwLz7ibbDw-105" connectable="0" vertex="1">
          <mxGeometry x="-1" relative="1" as="geometry" />
        </mxCell>
        <mxCell id="eIMBk2BtrGEwLz7ibbDw-107" value="n" style="edgeLabel;resizable=0;html=1;;align=right;verticalAlign=bottom;" parent="eIMBk2BtrGEwLz7ibbDw-105" connectable="0" vertex="1">
          <mxGeometry x="1" relative="1" as="geometry">
            <mxPoint x="-20" as="offset" />
          </mxGeometry>
        </mxCell>
        <mxCell id="eIMBk2BtrGEwLz7ibbDw-132" value="" style="endArrow=classic;html=1;rounded=0;" parent="1" edge="1">
          <mxGeometry relative="1" as="geometry">
            <mxPoint x="1140" y="199.5" as="sourcePoint" />
            <mxPoint x="1300" y="199.5" as="targetPoint" />
          </mxGeometry>
        </mxCell>
        <mxCell id="eIMBk2BtrGEwLz7ibbDw-133" value="1" style="edgeLabel;resizable=0;html=1;;align=left;verticalAlign=bottom;" parent="eIMBk2BtrGEwLz7ibbDw-132" connectable="0" vertex="1">
          <mxGeometry x="-1" relative="1" as="geometry" />
        </mxCell>
        <mxCell id="eIMBk2BtrGEwLz7ibbDw-134" value="n" style="edgeLabel;resizable=0;html=1;;align=right;verticalAlign=bottom;" parent="eIMBk2BtrGEwLz7ibbDw-132" connectable="0" vertex="1">
          <mxGeometry x="1" relative="1" as="geometry">
            <mxPoint x="-20" as="offset" />
          </mxGeometry>
        </mxCell>
        <mxCell id="eIMBk2BtrGEwLz7ibbDw-135" value="Album" style="shape=table;startSize=40;container=1;collapsible=1;childLayout=tableLayout;fixedRows=1;rowLines=0;fontStyle=1;align=center;resizeLast=1;fillColor=#dae8fc;strokeColor=#6c8ebf;" parent="1" vertex="1">
          <mxGeometry x="1310" y="130" width="250" height="220" as="geometry" />
        </mxCell>
        <mxCell id="eIMBk2BtrGEwLz7ibbDw-136" value="" style="shape=partialRectangle;collapsible=0;dropTarget=0;pointerEvents=0;points=[[0,0.5],[1,0.5]];portConstraint=eastwest;top=0;left=0;right=0;bottom=1;" parent="eIMBk2BtrGEwLz7ibbDw-135" vertex="1">
          <mxGeometry y="40" width="250" height="30" as="geometry" />
        </mxCell>
        <mxCell id="eIMBk2BtrGEwLz7ibbDw-137" value="" style="shape=partialRectangle;overflow=hidden;connectable=0;fillColor=none;top=0;left=0;bottom=0;right=0;fontStyle=1;" parent="eIMBk2BtrGEwLz7ibbDw-136" vertex="1">
          <mxGeometry width="30" height="30" as="geometry">
            <mxRectangle width="30" height="30" as="alternateBounds" />
          </mxGeometry>
        </mxCell>
        <mxCell id="eIMBk2BtrGEwLz7ibbDw-138" value="ID (PK)" style="shape=partialRectangle;overflow=hidden;connectable=0;fillColor=none;top=0;left=0;bottom=0;right=0;align=left;spacingLeft=6;fontStyle=4;" parent="eIMBk2BtrGEwLz7ibbDw-136" vertex="1">
          <mxGeometry x="30" width="220" height="30" as="geometry">
            <mxRectangle width="220" height="30" as="alternateBounds" />
          </mxGeometry>
        </mxCell>
        <mxCell id="eIMBk2BtrGEwLz7ibbDw-139" value="" style="shape=partialRectangle;collapsible=0;dropTarget=0;pointerEvents=0;fillColor=#f5f5f5;points=[[0,0.5],[1,0.5]];portConstraint=eastwest;top=0;left=0;right=0;bottom=0;fontColor=#333333;strokeColor=#666666;" parent="eIMBk2BtrGEwLz7ibbDw-135" vertex="1">
          <mxGeometry y="70" width="250" height="30" as="geometry" />
        </mxCell>
        <mxCell id="eIMBk2BtrGEwLz7ibbDw-140" value="" style="shape=partialRectangle;overflow=hidden;connectable=0;fillColor=none;top=0;left=0;bottom=0;right=0;" parent="eIMBk2BtrGEwLz7ibbDw-139" vertex="1">
          <mxGeometry width="30" height="30" as="geometry">
            <mxRectangle width="30" height="30" as="alternateBounds" />
          </mxGeometry>
        </mxCell>
        <mxCell id="eIMBk2BtrGEwLz7ibbDw-141" value="Title" style="shape=partialRectangle;overflow=hidden;connectable=0;fillColor=none;top=0;left=0;bottom=0;right=0;align=left;spacingLeft=6;" parent="eIMBk2BtrGEwLz7ibbDw-139" vertex="1">
          <mxGeometry x="30" width="220" height="30" as="geometry">
            <mxRectangle width="220" height="30" as="alternateBounds" />
          </mxGeometry>
        </mxCell>
        <mxCell id="eIMBk2BtrGEwLz7ibbDw-142" value="" style="shape=partialRectangle;collapsible=0;dropTarget=0;pointerEvents=0;points=[[0,0.5],[1,0.5]];portConstraint=eastwest;top=0;left=0;right=0;bottom=0;" parent="eIMBk2BtrGEwLz7ibbDw-135" vertex="1">
          <mxGeometry y="100" width="250" height="30" as="geometry" />
        </mxCell>
        <mxCell id="eIMBk2BtrGEwLz7ibbDw-143" value="" style="shape=partialRectangle;overflow=hidden;connectable=0;fillColor=none;top=0;left=0;bottom=0;right=0;" parent="eIMBk2BtrGEwLz7ibbDw-142" vertex="1">
          <mxGeometry width="30" height="30" as="geometry">
            <mxRectangle width="30" height="30" as="alternateBounds" />
          </mxGeometry>
        </mxCell>
        <mxCell id="eIMBk2BtrGEwLz7ibbDw-144" value="Content" style="shape=partialRectangle;overflow=hidden;connectable=0;fillColor=none;top=0;left=0;bottom=0;right=0;align=left;spacingLeft=6;" parent="eIMBk2BtrGEwLz7ibbDw-142" vertex="1">
          <mxGeometry x="30" width="220" height="30" as="geometry">
            <mxRectangle width="220" height="30" as="alternateBounds" />
          </mxGeometry>
        </mxCell>
        <mxCell id="eIMBk2BtrGEwLz7ibbDw-148" value="" style="shape=partialRectangle;collapsible=0;dropTarget=0;pointerEvents=0;fillColor=#dae8fc;points=[[0,0.5],[1,0.5]];portConstraint=eastwest;top=0;left=0;right=0;bottom=0;strokeColor=#6c8ebf;" parent="eIMBk2BtrGEwLz7ibbDw-135" vertex="1">
          <mxGeometry y="130" width="250" height="30" as="geometry" />
        </mxCell>
        <mxCell id="eIMBk2BtrGEwLz7ibbDw-149" value="" style="shape=partialRectangle;overflow=hidden;connectable=0;fillColor=#f5f5f5;top=0;left=0;bottom=0;right=0;fontColor=#333333;strokeColor=#666666;" parent="eIMBk2BtrGEwLz7ibbDw-148" vertex="1">
          <mxGeometry width="30" height="30" as="geometry">
            <mxRectangle width="30" height="30" as="alternateBounds" />
          </mxGeometry>
        </mxCell>
        <mxCell id="eIMBk2BtrGEwLz7ibbDw-150" value="UserID (FK)" style="shape=partialRectangle;overflow=hidden;connectable=0;fillColor=#f5f5f5;top=0;left=0;bottom=0;right=0;align=left;spacingLeft=6;fontColor=#333333;strokeColor=#666666;" parent="eIMBk2BtrGEwLz7ibbDw-148" vertex="1">
          <mxGeometry x="30" width="220" height="30" as="geometry">
            <mxRectangle width="220" height="30" as="alternateBounds" />
          </mxGeometry>
        </mxCell>
        <mxCell id="eIMBk2BtrGEwLz7ibbDw-151" value="" style="shape=partialRectangle;collapsible=0;dropTarget=0;pointerEvents=0;points=[[0,0.5],[1,0.5]];portConstraint=eastwest;top=0;left=0;right=0;bottom=0;" parent="eIMBk2BtrGEwLz7ibbDw-135" vertex="1">
          <mxGeometry y="160" width="250" height="30" as="geometry" />
        </mxCell>
        <mxCell id="eIMBk2BtrGEwLz7ibbDw-152" value="" style="shape=partialRectangle;overflow=hidden;connectable=0;fillColor=#f5f5f5;top=0;left=0;bottom=0;right=0;fontColor=#333333;strokeColor=#666666;" parent="eIMBk2BtrGEwLz7ibbDw-151" vertex="1">
          <mxGeometry width="30" height="30" as="geometry">
            <mxRectangle width="30" height="30" as="alternateBounds" />
          </mxGeometry>
        </mxCell>
        <mxCell id="eIMBk2BtrGEwLz7ibbDw-153" value="LevelID (FK)" style="shape=partialRectangle;overflow=hidden;connectable=0;fillColor=#f5f5f5;top=0;left=0;bottom=0;right=0;align=left;spacingLeft=6;fontColor=#333333;strokeColor=#666666;" parent="eIMBk2BtrGEwLz7ibbDw-151" vertex="1">
          <mxGeometry x="30" width="220" height="30" as="geometry">
            <mxRectangle width="220" height="30" as="alternateBounds" />
          </mxGeometry>
        </mxCell>
        <mxCell id="eIMBk2BtrGEwLz7ibbDw-145" value="" style="shape=partialRectangle;collapsible=0;dropTarget=0;pointerEvents=0;fillColor=#dae8fc;points=[[0,0.5],[1,0.5]];portConstraint=eastwest;top=0;left=0;right=0;bottom=0;strokeColor=#6c8ebf;" parent="eIMBk2BtrGEwLz7ibbDw-135" vertex="1">
          <mxGeometry y="190" width="250" height="30" as="geometry" />
        </mxCell>
        <mxCell id="eIMBk2BtrGEwLz7ibbDw-146" value="" style="shape=partialRectangle;overflow=hidden;connectable=0;fillColor=#f5f5f5;top=0;left=0;bottom=0;right=0;fontColor=#333333;strokeColor=#666666;" parent="eIMBk2BtrGEwLz7ibbDw-145" vertex="1">
          <mxGeometry width="30" height="30" as="geometry">
            <mxRectangle width="30" height="30" as="alternateBounds" />
          </mxGeometry>
        </mxCell>
        <mxCell id="eIMBk2BtrGEwLz7ibbDw-147" value="CreatedAt (Date)" style="shape=partialRectangle;overflow=hidden;connectable=0;fillColor=#f5f5f5;top=0;left=0;bottom=0;right=0;align=left;spacingLeft=6;fontColor=#333333;strokeColor=#666666;" parent="eIMBk2BtrGEwLz7ibbDw-145" vertex="1">
          <mxGeometry x="30" width="220" height="30" as="geometry">
            <mxRectangle width="220" height="30" as="alternateBounds" />
          </mxGeometry>
        </mxCell>
        <mxCell id="eIMBk2BtrGEwLz7ibbDw-154" value="Post" style="shape=table;startSize=40;container=1;collapsible=1;childLayout=tableLayout;fixedRows=1;rowLines=0;fontStyle=1;align=center;resizeLast=1;fillColor=#dae8fc;strokeColor=#6c8ebf;" parent="1" vertex="1">
          <mxGeometry x="1720" y="130" width="200" height="430" as="geometry" />
        </mxCell>
        <mxCell id="eIMBk2BtrGEwLz7ibbDw-155" value="" style="shape=partialRectangle;collapsible=0;dropTarget=0;pointerEvents=0;points=[[0,0.5],[1,0.5]];portConstraint=eastwest;top=0;left=0;right=0;bottom=1;" parent="eIMBk2BtrGEwLz7ibbDw-154" vertex="1">
          <mxGeometry y="40" width="200" height="30" as="geometry" />
        </mxCell>
        <mxCell id="eIMBk2BtrGEwLz7ibbDw-156" value="" style="shape=partialRectangle;overflow=hidden;connectable=0;fillColor=none;top=0;left=0;bottom=0;right=0;fontStyle=1;" parent="eIMBk2BtrGEwLz7ibbDw-155" vertex="1">
          <mxGeometry width="30" height="30" as="geometry">
            <mxRectangle width="30" height="30" as="alternateBounds" />
          </mxGeometry>
        </mxCell>
        <mxCell id="eIMBk2BtrGEwLz7ibbDw-157" value="ID (PK)" style="shape=partialRectangle;overflow=hidden;connectable=0;fillColor=none;top=0;left=0;bottom=0;right=0;align=left;spacingLeft=6;fontStyle=4;" parent="eIMBk2BtrGEwLz7ibbDw-155" vertex="1">
          <mxGeometry x="30" width="170" height="30" as="geometry">
            <mxRectangle width="170" height="30" as="alternateBounds" />
          </mxGeometry>
        </mxCell>
        <mxCell id="eIMBk2BtrGEwLz7ibbDw-158" value="" style="shape=partialRectangle;collapsible=0;dropTarget=0;pointerEvents=0;fillColor=#f5f5f5;points=[[0,0.5],[1,0.5]];portConstraint=eastwest;top=0;left=0;right=0;bottom=0;fontColor=#333333;strokeColor=#666666;" parent="eIMBk2BtrGEwLz7ibbDw-154" vertex="1">
          <mxGeometry y="70" width="200" height="30" as="geometry" />
        </mxCell>
        <mxCell id="eIMBk2BtrGEwLz7ibbDw-159" value="" style="shape=partialRectangle;overflow=hidden;connectable=0;fillColor=none;top=0;left=0;bottom=0;right=0;" parent="eIMBk2BtrGEwLz7ibbDw-158" vertex="1">
          <mxGeometry width="30" height="30" as="geometry">
            <mxRectangle width="30" height="30" as="alternateBounds" />
          </mxGeometry>
        </mxCell>
        <mxCell id="eIMBk2BtrGEwLz7ibbDw-160" value="Title" style="shape=partialRectangle;overflow=hidden;connectable=0;fillColor=none;top=0;left=0;bottom=0;right=0;align=left;spacingLeft=6;" parent="eIMBk2BtrGEwLz7ibbDw-158" vertex="1">
          <mxGeometry x="30" width="170" height="30" as="geometry">
            <mxRectangle width="170" height="30" as="alternateBounds" />
          </mxGeometry>
        </mxCell>
        <mxCell id="eIMBk2BtrGEwLz7ibbDw-161" value="" style="shape=partialRectangle;collapsible=0;dropTarget=0;pointerEvents=0;points=[[0,0.5],[1,0.5]];portConstraint=eastwest;top=0;left=0;right=0;bottom=0;" parent="eIMBk2BtrGEwLz7ibbDw-154" vertex="1">
          <mxGeometry y="100" width="200" height="30" as="geometry" />
        </mxCell>
        <mxCell id="eIMBk2BtrGEwLz7ibbDw-162" value="" style="shape=partialRectangle;overflow=hidden;connectable=0;fillColor=none;top=0;left=0;bottom=0;right=0;" parent="eIMBk2BtrGEwLz7ibbDw-161" vertex="1">
          <mxGeometry width="30" height="30" as="geometry">
            <mxRectangle width="30" height="30" as="alternateBounds" />
          </mxGeometry>
        </mxCell>
        <mxCell id="eIMBk2BtrGEwLz7ibbDw-163" value="Content" style="shape=partialRectangle;overflow=hidden;connectable=0;fillColor=none;top=0;left=0;bottom=0;right=0;align=left;spacingLeft=6;" parent="eIMBk2BtrGEwLz7ibbDw-161" vertex="1">
          <mxGeometry x="30" width="170" height="30" as="geometry">
            <mxRectangle width="170" height="30" as="alternateBounds" />
          </mxGeometry>
        </mxCell>
        <mxCell id="eIMBk2BtrGEwLz7ibbDw-164" value="" style="shape=partialRectangle;collapsible=0;dropTarget=0;pointerEvents=0;fillColor=#dae8fc;points=[[0,0.5],[1,0.5]];portConstraint=eastwest;top=0;left=0;right=0;bottom=0;strokeColor=#6c8ebf;" parent="eIMBk2BtrGEwLz7ibbDw-154" vertex="1">
          <mxGeometry y="130" width="200" height="30" as="geometry" />
        </mxCell>
        <mxCell id="eIMBk2BtrGEwLz7ibbDw-165" value="" style="shape=partialRectangle;overflow=hidden;connectable=0;fillColor=#f5f5f5;top=0;left=0;bottom=0;right=0;fontColor=#333333;strokeColor=#666666;" parent="eIMBk2BtrGEwLz7ibbDw-164" vertex="1">
          <mxGeometry width="30" height="30" as="geometry">
            <mxRectangle width="30" height="30" as="alternateBounds" />
          </mxGeometry>
        </mxCell>
        <mxCell id="eIMBk2BtrGEwLz7ibbDw-166" value="Lat (Double)" style="shape=partialRectangle;overflow=hidden;connectable=0;fillColor=#f5f5f5;top=0;left=0;bottom=0;right=0;align=left;spacingLeft=6;fontColor=#333333;strokeColor=#666666;" parent="eIMBk2BtrGEwLz7ibbDw-164" vertex="1">
          <mxGeometry x="30" width="170" height="30" as="geometry">
            <mxRectangle width="170" height="30" as="alternateBounds" />
          </mxGeometry>
        </mxCell>
        <mxCell id="eIMBk2BtrGEwLz7ibbDw-167" value="" style="shape=partialRectangle;collapsible=0;dropTarget=0;pointerEvents=0;points=[[0,0.5],[1,0.5]];portConstraint=eastwest;top=0;left=0;right=0;bottom=0;" parent="eIMBk2BtrGEwLz7ibbDw-154" vertex="1">
          <mxGeometry y="160" width="200" height="30" as="geometry" />
        </mxCell>
        <mxCell id="eIMBk2BtrGEwLz7ibbDw-168" value="" style="shape=partialRectangle;overflow=hidden;connectable=0;fillColor=none;top=0;left=0;bottom=0;right=0;" parent="eIMBk2BtrGEwLz7ibbDw-167" vertex="1">
          <mxGeometry width="30" height="30" as="geometry">
            <mxRectangle width="30" height="30" as="alternateBounds" />
          </mxGeometry>
        </mxCell>
        <mxCell id="eIMBk2BtrGEwLz7ibbDw-169" value="Lng (Content)" style="shape=partialRectangle;overflow=hidden;connectable=0;fillColor=none;top=0;left=0;bottom=0;right=0;align=left;spacingLeft=6;" parent="eIMBk2BtrGEwLz7ibbDw-167" vertex="1">
          <mxGeometry x="30" width="170" height="30" as="geometry">
            <mxRectangle width="170" height="30" as="alternateBounds" />
          </mxGeometry>
        </mxCell>
        <mxCell id="eIMBk2BtrGEwLz7ibbDw-170" value="" style="shape=partialRectangle;collapsible=0;dropTarget=0;pointerEvents=0;fillColor=#f5f5f5;points=[[0,0.5],[1,0.5]];portConstraint=eastwest;top=0;left=0;right=0;bottom=0;fontColor=#333333;strokeColor=#666666;" parent="eIMBk2BtrGEwLz7ibbDw-154" vertex="1">
          <mxGeometry y="190" width="200" height="30" as="geometry" />
        </mxCell>
        <mxCell id="eIMBk2BtrGEwLz7ibbDw-171" value="" style="shape=partialRectangle;overflow=hidden;connectable=0;fillColor=none;top=0;left=0;bottom=0;right=0;" parent="eIMBk2BtrGEwLz7ibbDw-170" vertex="1">
          <mxGeometry width="30" height="30" as="geometry">
            <mxRectangle width="30" height="30" as="alternateBounds" />
          </mxGeometry>
        </mxCell>
        <mxCell id="eIMBk2BtrGEwLz7ibbDw-172" value="StartAt (Date)" style="shape=partialRectangle;overflow=hidden;connectable=0;fillColor=none;top=0;left=0;bottom=0;right=0;align=left;spacingLeft=6;" parent="eIMBk2BtrGEwLz7ibbDw-170" vertex="1">
          <mxGeometry x="30" width="170" height="30" as="geometry">
            <mxRectangle width="170" height="30" as="alternateBounds" />
          </mxGeometry>
        </mxCell>
        <mxCell id="eIMBk2BtrGEwLz7ibbDw-173" value="" style="shape=partialRectangle;collapsible=0;dropTarget=0;pointerEvents=0;points=[[0,0.5],[1,0.5]];portConstraint=eastwest;top=0;left=0;right=0;bottom=0;" parent="eIMBk2BtrGEwLz7ibbDw-154" vertex="1">
          <mxGeometry y="220" width="200" height="30" as="geometry" />
        </mxCell>
        <mxCell id="eIMBk2BtrGEwLz7ibbDw-174" value="" style="shape=partialRectangle;overflow=hidden;connectable=0;fillColor=none;top=0;left=0;bottom=0;right=0;" parent="eIMBk2BtrGEwLz7ibbDw-173" vertex="1">
          <mxGeometry width="30" height="30" as="geometry">
            <mxRectangle width="30" height="30" as="alternateBounds" />
          </mxGeometry>
        </mxCell>
        <mxCell id="eIMBk2BtrGEwLz7ibbDw-175" value=" FinishAt (Date)    " style="shape=partialRectangle;overflow=hidden;connectable=0;fillColor=none;top=0;left=0;bottom=0;right=0;align=left;spacingLeft=6;" parent="eIMBk2BtrGEwLz7ibbDw-173" vertex="1">
          <mxGeometry x="30" width="170" height="30" as="geometry">
            <mxRectangle width="170" height="30" as="alternateBounds" />
          </mxGeometry>
        </mxCell>
        <mxCell id="eIMBk2BtrGEwLz7ibbDw-176" value="" style="shape=partialRectangle;collapsible=0;dropTarget=0;pointerEvents=0;fillColor=#f5f5f5;points=[[0,0.5],[1,0.5]];portConstraint=eastwest;top=0;left=0;right=0;bottom=0;fontColor=#333333;strokeColor=#666666;" parent="eIMBk2BtrGEwLz7ibbDw-154" vertex="1">
          <mxGeometry y="250" width="200" height="30" as="geometry" />
        </mxCell>
        <mxCell id="eIMBk2BtrGEwLz7ibbDw-177" value="" style="shape=partialRectangle;overflow=hidden;connectable=0;fillColor=none;top=0;left=0;bottom=0;right=0;" parent="eIMBk2BtrGEwLz7ibbDw-176" vertex="1">
          <mxGeometry width="30" height="30" as="geometry">
            <mxRectangle width="30" height="30" as="alternateBounds" />
          </mxGeometry>
        </mxCell>
        <mxCell id="eIMBk2BtrGEwLz7ibbDw-178" value="ReceptorTypeID     " style="shape=partialRectangle;overflow=hidden;connectable=0;fillColor=none;top=0;left=0;bottom=0;right=0;align=left;spacingLeft=6;" parent="eIMBk2BtrGEwLz7ibbDw-176" vertex="1">
          <mxGeometry x="30" width="170" height="30" as="geometry">
            <mxRectangle width="170" height="30" as="alternateBounds" />
          </mxGeometry>
        </mxCell>
        <mxCell id="eIMBk2BtrGEwLz7ibbDw-179" value="" style="shape=partialRectangle;collapsible=0;dropTarget=0;pointerEvents=0;points=[[0,0.5],[1,0.5]];portConstraint=eastwest;top=0;left=0;right=0;bottom=0;" parent="eIMBk2BtrGEwLz7ibbDw-154" vertex="1">
          <mxGeometry y="280" width="200" height="30" as="geometry" />
        </mxCell>
        <mxCell id="eIMBk2BtrGEwLz7ibbDw-180" value="" style="shape=partialRectangle;overflow=hidden;connectable=0;fillColor=none;top=0;left=0;bottom=0;right=0;" parent="eIMBk2BtrGEwLz7ibbDw-179" vertex="1">
          <mxGeometry width="30" height="30" as="geometry">
            <mxRectangle width="30" height="30" as="alternateBounds" />
          </mxGeometry>
        </mxCell>
        <mxCell id="eIMBk2BtrGEwLz7ibbDw-181" value="AuthorRefID        " style="shape=partialRectangle;overflow=hidden;connectable=0;fillColor=none;top=0;left=0;bottom=0;right=0;align=left;spacingLeft=6;" parent="eIMBk2BtrGEwLz7ibbDw-179" vertex="1">
          <mxGeometry x="30" width="170" height="30" as="geometry">
            <mxRectangle width="170" height="30" as="alternateBounds" />
          </mxGeometry>
        </mxCell>
        <mxCell id="eIMBk2BtrGEwLz7ibbDw-188" value="" style="shape=partialRectangle;collapsible=0;dropTarget=0;pointerEvents=0;fillColor=#f5f5f5;points=[[0,0.5],[1,0.5]];portConstraint=eastwest;top=0;left=0;right=0;bottom=0;fontColor=#333333;strokeColor=#666666;" parent="eIMBk2BtrGEwLz7ibbDw-154" vertex="1">
          <mxGeometry y="310" width="200" height="30" as="geometry" />
        </mxCell>
        <mxCell id="eIMBk2BtrGEwLz7ibbDw-189" value="" style="shape=partialRectangle;overflow=hidden;connectable=0;fillColor=none;top=0;left=0;bottom=0;right=0;" parent="eIMBk2BtrGEwLz7ibbDw-188" vertex="1">
          <mxGeometry width="30" height="30" as="geometry">
            <mxRectangle width="30" height="30" as="alternateBounds" />
          </mxGeometry>
        </mxCell>
        <mxCell id="eIMBk2BtrGEwLz7ibbDw-190" value="ReceptorRefID      " style="shape=partialRectangle;overflow=hidden;connectable=0;fillColor=none;top=0;left=0;bottom=0;right=0;align=left;spacingLeft=6;" parent="eIMBk2BtrGEwLz7ibbDw-188" vertex="1">
          <mxGeometry x="30" width="170" height="30" as="geometry">
            <mxRectangle width="170" height="30" as="alternateBounds" />
          </mxGeometry>
        </mxCell>
        <mxCell id="eIMBk2BtrGEwLz7ibbDw-191" value="" style="shape=partialRectangle;collapsible=0;dropTarget=0;pointerEvents=0;points=[[0,0.5],[1,0.5]];portConstraint=eastwest;top=0;left=0;right=0;bottom=0;" parent="eIMBk2BtrGEwLz7ibbDw-154" vertex="1">
          <mxGeometry y="340" width="200" height="30" as="geometry" />
        </mxCell>
        <mxCell id="eIMBk2BtrGEwLz7ibbDw-192" value="" style="shape=partialRectangle;overflow=hidden;connectable=0;fillColor=none;top=0;left=0;bottom=0;right=0;" parent="eIMBk2BtrGEwLz7ibbDw-191" vertex="1">
          <mxGeometry width="30" height="30" as="geometry">
            <mxRectangle width="30" height="30" as="alternateBounds" />
          </mxGeometry>
        </mxCell>
        <mxCell id="eIMBk2BtrGEwLz7ibbDw-193" value="LevelID (FK)" style="shape=partialRectangle;overflow=hidden;connectable=0;fillColor=none;top=0;left=0;bottom=0;right=0;align=left;spacingLeft=6;" parent="eIMBk2BtrGEwLz7ibbDw-191" vertex="1">
          <mxGeometry x="30" width="170" height="30" as="geometry">
            <mxRectangle width="170" height="30" as="alternateBounds" />
          </mxGeometry>
        </mxCell>
        <mxCell id="eIMBk2BtrGEwLz7ibbDw-194" value="" style="shape=partialRectangle;collapsible=0;dropTarget=0;pointerEvents=0;points=[[0,0.5],[1,0.5]];portConstraint=eastwest;top=0;left=0;right=0;bottom=0;fillColor=#f5f5f5;fontColor=#333333;strokeColor=#666666;" parent="eIMBk2BtrGEwLz7ibbDw-154" vertex="1">
          <mxGeometry y="370" width="200" height="30" as="geometry" />
        </mxCell>
        <mxCell id="eIMBk2BtrGEwLz7ibbDw-195" value="" style="shape=partialRectangle;overflow=hidden;connectable=0;fillColor=none;top=0;left=0;bottom=0;right=0;" parent="eIMBk2BtrGEwLz7ibbDw-194" vertex="1">
          <mxGeometry width="30" height="30" as="geometry">
            <mxRectangle width="30" height="30" as="alternateBounds" />
          </mxGeometry>
        </mxCell>
        <mxCell id="eIMBk2BtrGEwLz7ibbDw-196" value="PostTypeID" style="shape=partialRectangle;overflow=hidden;connectable=0;fillColor=none;top=0;left=0;bottom=0;right=0;align=left;spacingLeft=6;" parent="eIMBk2BtrGEwLz7ibbDw-194" vertex="1">
          <mxGeometry x="30" width="170" height="30" as="geometry">
            <mxRectangle width="170" height="30" as="alternateBounds" />
          </mxGeometry>
        </mxCell>
        <mxCell id="eIMBk2BtrGEwLz7ibbDw-182" value="" style="shape=partialRectangle;collapsible=0;dropTarget=0;pointerEvents=0;points=[[0,0.5],[1,0.5]];portConstraint=eastwest;top=0;left=0;right=0;bottom=0;" parent="eIMBk2BtrGEwLz7ibbDw-154" vertex="1">
          <mxGeometry y="400" width="200" height="30" as="geometry" />
        </mxCell>
        <mxCell id="eIMBk2BtrGEwLz7ibbDw-183" value="" style="shape=partialRectangle;overflow=hidden;connectable=0;fillColor=none;top=0;left=0;bottom=0;right=0;" parent="eIMBk2BtrGEwLz7ibbDw-182" vertex="1">
          <mxGeometry width="30" height="30" as="geometry">
            <mxRectangle width="30" height="30" as="alternateBounds" />
          </mxGeometry>
        </mxCell>
        <mxCell id="eIMBk2BtrGEwLz7ibbDw-184" value="CreatedAt (Date)" style="shape=partialRectangle;overflow=hidden;connectable=0;fillColor=none;top=0;left=0;bottom=0;right=0;align=left;spacingLeft=6;" parent="eIMBk2BtrGEwLz7ibbDw-182" vertex="1">
          <mxGeometry x="30" width="170" height="30" as="geometry">
            <mxRectangle width="170" height="30" as="alternateBounds" />
          </mxGeometry>
        </mxCell>
        <mxCell id="eIMBk2BtrGEwLz7ibbDw-185" value="" style="endArrow=classic;html=1;rounded=0;" parent="1" edge="1">
          <mxGeometry relative="1" as="geometry">
            <mxPoint x="1560" y="194.5" as="sourcePoint" />
            <mxPoint x="1720" y="194.5" as="targetPoint" />
          </mxGeometry>
        </mxCell>
        <mxCell id="eIMBk2BtrGEwLz7ibbDw-186" value="1" style="edgeLabel;resizable=0;html=1;;align=left;verticalAlign=bottom;" parent="eIMBk2BtrGEwLz7ibbDw-185" connectable="0" vertex="1">
          <mxGeometry x="-1" relative="1" as="geometry" />
        </mxCell>
        <mxCell id="eIMBk2BtrGEwLz7ibbDw-187" value="n" style="edgeLabel;resizable=0;html=1;;align=right;verticalAlign=bottom;" parent="eIMBk2BtrGEwLz7ibbDw-185" connectable="0" vertex="1">
          <mxGeometry x="1" relative="1" as="geometry">
            <mxPoint x="-20" as="offset" />
          </mxGeometry>
        </mxCell>
        <mxCell id="eIMBk2BtrGEwLz7ibbDw-197" value="Post_Image" style="shape=table;startSize=40;container=1;collapsible=1;childLayout=tableLayout;fixedRows=1;rowLines=0;fontStyle=1;align=center;resizeLast=1;fillColor=#dae8fc;strokeColor=#6c8ebf;" parent="1" vertex="1">
          <mxGeometry x="2090" y="145" width="250" height="100" as="geometry" />
        </mxCell>
        <mxCell id="eIMBk2BtrGEwLz7ibbDw-198" value="" style="shape=partialRectangle;collapsible=0;dropTarget=0;pointerEvents=0;points=[[0,0.5],[1,0.5]];portConstraint=eastwest;top=0;left=0;right=0;bottom=1;" parent="eIMBk2BtrGEwLz7ibbDw-197" vertex="1">
          <mxGeometry y="40" width="250" height="30" as="geometry" />
        </mxCell>
        <mxCell id="eIMBk2BtrGEwLz7ibbDw-199" value="" style="shape=partialRectangle;overflow=hidden;connectable=0;fillColor=none;top=0;left=0;bottom=0;right=0;fontStyle=1;" parent="eIMBk2BtrGEwLz7ibbDw-198" vertex="1">
          <mxGeometry width="30" height="30" as="geometry">
            <mxRectangle width="30" height="30" as="alternateBounds" />
          </mxGeometry>
        </mxCell>
        <mxCell id="eIMBk2BtrGEwLz7ibbDw-200" value="PostID (FK)" style="shape=partialRectangle;overflow=hidden;connectable=0;fillColor=none;top=0;left=0;bottom=0;right=0;align=left;spacingLeft=6;fontStyle=4;" parent="eIMBk2BtrGEwLz7ibbDw-198" vertex="1">
          <mxGeometry x="30" width="220" height="30" as="geometry">
            <mxRectangle width="220" height="30" as="alternateBounds" />
          </mxGeometry>
        </mxCell>
        <mxCell id="eIMBk2BtrGEwLz7ibbDw-201" value="" style="shape=partialRectangle;collapsible=0;dropTarget=0;pointerEvents=0;fillColor=#f5f5f5;points=[[0,0.5],[1,0.5]];portConstraint=eastwest;top=0;left=0;right=0;bottom=0;fontColor=#333333;strokeColor=#666666;" parent="eIMBk2BtrGEwLz7ibbDw-197" vertex="1">
          <mxGeometry y="70" width="250" height="30" as="geometry" />
        </mxCell>
        <mxCell id="eIMBk2BtrGEwLz7ibbDw-202" value="" style="shape=partialRectangle;overflow=hidden;connectable=0;fillColor=none;top=0;left=0;bottom=0;right=0;" parent="eIMBk2BtrGEwLz7ibbDw-201" vertex="1">
          <mxGeometry width="30" height="30" as="geometry">
            <mxRectangle width="30" height="30" as="alternateBounds" />
          </mxGeometry>
        </mxCell>
        <mxCell id="eIMBk2BtrGEwLz7ibbDw-203" value="ImageID (FK)" style="shape=partialRectangle;overflow=hidden;connectable=0;fillColor=none;top=0;left=0;bottom=0;right=0;align=left;spacingLeft=6;" parent="eIMBk2BtrGEwLz7ibbDw-201" vertex="1">
          <mxGeometry x="30" width="220" height="30" as="geometry">
            <mxRectangle width="220" height="30" as="alternateBounds" />
          </mxGeometry>
        </mxCell>
        <mxCell id="eIMBk2BtrGEwLz7ibbDw-216" value="" style="endArrow=classic;html=1;rounded=0;" parent="1" edge="1">
          <mxGeometry relative="1" as="geometry">
            <mxPoint x="1930" y="200" as="sourcePoint" />
            <mxPoint x="2090" y="200" as="targetPoint" />
          </mxGeometry>
        </mxCell>
        <mxCell id="eIMBk2BtrGEwLz7ibbDw-217" value="1" style="edgeLabel;resizable=0;html=1;;align=left;verticalAlign=bottom;" parent="eIMBk2BtrGEwLz7ibbDw-216" connectable="0" vertex="1">
          <mxGeometry x="-1" relative="1" as="geometry" />
        </mxCell>
        <mxCell id="eIMBk2BtrGEwLz7ibbDw-218" value="n" style="edgeLabel;resizable=0;html=1;;align=right;verticalAlign=bottom;" parent="eIMBk2BtrGEwLz7ibbDw-216" connectable="0" vertex="1">
          <mxGeometry x="1" relative="1" as="geometry">
            <mxPoint x="-20" as="offset" />
          </mxGeometry>
        </mxCell>
        <mxCell id="eIMBk2BtrGEwLz7ibbDw-222" value="Recover" style="shape=table;startSize=40;container=1;collapsible=1;childLayout=tableLayout;fixedRows=1;rowLines=0;fontStyle=1;align=center;resizeLast=1;fillColor=#dae8fc;strokeColor=#6c8ebf;" parent="1" vertex="1">
          <mxGeometry x="480" y="370" width="250" height="190" as="geometry" />
        </mxCell>
        <mxCell id="eIMBk2BtrGEwLz7ibbDw-223" value="" style="shape=partialRectangle;collapsible=0;dropTarget=0;pointerEvents=0;points=[[0,0.5],[1,0.5]];portConstraint=eastwest;top=0;left=0;right=0;bottom=1;" parent="eIMBk2BtrGEwLz7ibbDw-222" vertex="1">
          <mxGeometry y="40" width="250" height="30" as="geometry" />
        </mxCell>
        <mxCell id="eIMBk2BtrGEwLz7ibbDw-224" value="" style="shape=partialRectangle;overflow=hidden;connectable=0;fillColor=none;top=0;left=0;bottom=0;right=0;fontStyle=1;" parent="eIMBk2BtrGEwLz7ibbDw-223" vertex="1">
          <mxGeometry width="30" height="30" as="geometry">
            <mxRectangle width="30" height="30" as="alternateBounds" />
          </mxGeometry>
        </mxCell>
        <mxCell id="eIMBk2BtrGEwLz7ibbDw-225" value="ID Primary Key" style="shape=partialRectangle;overflow=hidden;connectable=0;fillColor=none;top=0;left=0;bottom=0;right=0;align=left;spacingLeft=6;fontStyle=4;" parent="eIMBk2BtrGEwLz7ibbDw-223" vertex="1">
          <mxGeometry x="30" width="220" height="30" as="geometry">
            <mxRectangle width="220" height="30" as="alternateBounds" />
          </mxGeometry>
        </mxCell>
        <mxCell id="eIMBk2BtrGEwLz7ibbDw-226" value="" style="shape=partialRectangle;collapsible=0;dropTarget=0;pointerEvents=0;fillColor=#f5f5f5;points=[[0,0.5],[1,0.5]];portConstraint=eastwest;top=0;left=0;right=0;bottom=0;fontColor=#333333;strokeColor=#666666;" parent="eIMBk2BtrGEwLz7ibbDw-222" vertex="1">
          <mxGeometry y="70" width="250" height="30" as="geometry" />
        </mxCell>
        <mxCell id="eIMBk2BtrGEwLz7ibbDw-227" value="" style="shape=partialRectangle;overflow=hidden;connectable=0;fillColor=none;top=0;left=0;bottom=0;right=0;" parent="eIMBk2BtrGEwLz7ibbDw-226" vertex="1">
          <mxGeometry width="30" height="30" as="geometry">
            <mxRectangle width="30" height="30" as="alternateBounds" />
          </mxGeometry>
        </mxCell>
        <mxCell id="eIMBk2BtrGEwLz7ibbDw-228" value=" UserID (FK)        " style="shape=partialRectangle;overflow=hidden;connectable=0;fillColor=none;top=0;left=0;bottom=0;right=0;align=left;spacingLeft=6;" parent="eIMBk2BtrGEwLz7ibbDw-226" vertex="1">
          <mxGeometry x="30" width="220" height="30" as="geometry">
            <mxRectangle width="220" height="30" as="alternateBounds" />
          </mxGeometry>
        </mxCell>
        <mxCell id="eIMBk2BtrGEwLz7ibbDw-229" value="" style="shape=partialRectangle;collapsible=0;dropTarget=0;pointerEvents=0;points=[[0,0.5],[1,0.5]];portConstraint=eastwest;top=0;left=0;right=0;bottom=0;" parent="eIMBk2BtrGEwLz7ibbDw-222" vertex="1">
          <mxGeometry y="100" width="250" height="30" as="geometry" />
        </mxCell>
        <mxCell id="eIMBk2BtrGEwLz7ibbDw-230" value="" style="shape=partialRectangle;overflow=hidden;connectable=0;fillColor=none;top=0;left=0;bottom=0;right=0;" parent="eIMBk2BtrGEwLz7ibbDw-229" vertex="1">
          <mxGeometry width="30" height="30" as="geometry">
            <mxRectangle width="30" height="30" as="alternateBounds" />
          </mxGeometry>
        </mxCell>
        <mxCell id="eIMBk2BtrGEwLz7ibbDw-231" value="Code               " style="shape=partialRectangle;overflow=hidden;connectable=0;fillColor=none;top=0;left=0;bottom=0;right=0;align=left;spacingLeft=6;" parent="eIMBk2BtrGEwLz7ibbDw-229" vertex="1">
          <mxGeometry x="30" width="220" height="30" as="geometry">
            <mxRectangle width="220" height="30" as="alternateBounds" />
          </mxGeometry>
        </mxCell>
        <mxCell id="eIMBk2BtrGEwLz7ibbDw-243" value="" style="shape=partialRectangle;collapsible=0;dropTarget=0;pointerEvents=0;points=[[0,0.5],[1,0.5]];portConstraint=eastwest;top=0;left=0;right=0;bottom=0;" parent="eIMBk2BtrGEwLz7ibbDw-222" vertex="1">
          <mxGeometry y="130" width="250" height="30" as="geometry" />
        </mxCell>
        <mxCell id="eIMBk2BtrGEwLz7ibbDw-244" value="" style="shape=partialRectangle;overflow=hidden;connectable=0;fillColor=#f5f5f5;top=0;left=0;bottom=0;right=0;fontColor=#333333;strokeColor=#666666;" parent="eIMBk2BtrGEwLz7ibbDw-243" vertex="1">
          <mxGeometry width="30" height="30" as="geometry">
            <mxRectangle width="30" height="30" as="alternateBounds" />
          </mxGeometry>
        </mxCell>
        <mxCell id="eIMBk2BtrGEwLz7ibbDw-245" value="IsUsed (Bool) " style="shape=partialRectangle;overflow=hidden;connectable=0;fillColor=#f5f5f5;top=0;left=0;bottom=0;right=0;align=left;spacingLeft=6;fontColor=#333333;strokeColor=#666666;" parent="eIMBk2BtrGEwLz7ibbDw-243" vertex="1">
          <mxGeometry x="30" width="220" height="30" as="geometry">
            <mxRectangle width="220" height="30" as="alternateBounds" />
          </mxGeometry>
        </mxCell>
        <mxCell id="eIMBk2BtrGEwLz7ibbDw-232" value="" style="shape=partialRectangle;collapsible=0;dropTarget=0;pointerEvents=0;points=[[0,0.5],[1,0.5]];portConstraint=eastwest;top=0;left=0;right=0;bottom=0;" parent="eIMBk2BtrGEwLz7ibbDw-222" vertex="1">
          <mxGeometry y="160" width="250" height="30" as="geometry" />
        </mxCell>
        <mxCell id="eIMBk2BtrGEwLz7ibbDw-233" value="" style="shape=partialRectangle;overflow=hidden;connectable=0;fillColor=#f5f5f5;top=0;left=0;bottom=0;right=0;fontColor=#333333;strokeColor=#666666;" parent="eIMBk2BtrGEwLz7ibbDw-232" vertex="1">
          <mxGeometry width="30" height="30" as="geometry">
            <mxRectangle width="30" height="30" as="alternateBounds" />
          </mxGeometry>
        </mxCell>
        <mxCell id="eIMBk2BtrGEwLz7ibbDw-234" value="CreatedAt (Date)" style="shape=partialRectangle;overflow=hidden;connectable=0;fillColor=#f5f5f5;top=0;left=0;bottom=0;right=0;align=left;spacingLeft=6;fontColor=#333333;strokeColor=#666666;" parent="eIMBk2BtrGEwLz7ibbDw-232" vertex="1">
          <mxGeometry x="30" width="220" height="30" as="geometry">
            <mxRectangle width="220" height="30" as="alternateBounds" />
          </mxGeometry>
        </mxCell>
        <mxCell id="eIMBk2BtrGEwLz7ibbDw-235" value="" style="endArrow=classic;html=1;rounded=0;entryX=0.5;entryY=1;entryDx=0;entryDy=0;" parent="1" target="eIMBk2BtrGEwLz7ibbDw-33" edge="1">
          <mxGeometry relative="1" as="geometry">
            <mxPoint x="614.5" y="370" as="sourcePoint" />
            <mxPoint x="615" y="310" as="targetPoint" />
          </mxGeometry>
        </mxCell>
        <mxCell id="eIMBk2BtrGEwLz7ibbDw-236" value="1" style="edgeLabel;resizable=0;html=1;;align=left;verticalAlign=bottom;" parent="eIMBk2BtrGEwLz7ibbDw-235" connectable="0" vertex="1">
          <mxGeometry x="-1" relative="1" as="geometry" />
        </mxCell>
        <mxCell id="eIMBk2BtrGEwLz7ibbDw-237" value="n" style="edgeLabel;resizable=0;html=1;;align=right;verticalAlign=bottom;" parent="eIMBk2BtrGEwLz7ibbDw-235" connectable="0" vertex="1">
          <mxGeometry x="1" relative="1" as="geometry">
            <mxPoint x="16" y="20" as="offset" />
          </mxGeometry>
        </mxCell>
        <mxCell id="eIMBk2BtrGEwLz7ibbDw-246" value="Heart" style="shape=table;startSize=40;container=1;collapsible=1;childLayout=tableLayout;fixedRows=1;rowLines=0;fontStyle=1;align=center;resizeLast=1;fillColor=#dae8fc;strokeColor=#6c8ebf;" parent="1" vertex="1">
          <mxGeometry x="2090" y="350" width="250" height="190" as="geometry" />
        </mxCell>
        <mxCell id="eIMBk2BtrGEwLz7ibbDw-247" value="" style="shape=partialRectangle;collapsible=0;dropTarget=0;pointerEvents=0;points=[[0,0.5],[1,0.5]];portConstraint=eastwest;top=0;left=0;right=0;bottom=1;" parent="eIMBk2BtrGEwLz7ibbDw-246" vertex="1">
          <mxGeometry y="40" width="250" height="30" as="geometry" />
        </mxCell>
        <mxCell id="eIMBk2BtrGEwLz7ibbDw-248" value="" style="shape=partialRectangle;overflow=hidden;connectable=0;fillColor=none;top=0;left=0;bottom=0;right=0;fontStyle=1;" parent="eIMBk2BtrGEwLz7ibbDw-247" vertex="1">
          <mxGeometry width="30" height="30" as="geometry">
            <mxRectangle width="30" height="30" as="alternateBounds" />
          </mxGeometry>
        </mxCell>
        <mxCell id="eIMBk2BtrGEwLz7ibbDw-249" value="ID (PK)" style="shape=partialRectangle;overflow=hidden;connectable=0;fillColor=none;top=0;left=0;bottom=0;right=0;align=left;spacingLeft=6;fontStyle=4;" parent="eIMBk2BtrGEwLz7ibbDw-247" vertex="1">
          <mxGeometry x="30" width="220" height="30" as="geometry">
            <mxRectangle width="220" height="30" as="alternateBounds" />
          </mxGeometry>
        </mxCell>
        <mxCell id="eIMBk2BtrGEwLz7ibbDw-250" value="" style="shape=partialRectangle;collapsible=0;dropTarget=0;pointerEvents=0;fillColor=#f5f5f5;points=[[0,0.5],[1,0.5]];portConstraint=eastwest;top=0;left=0;right=0;bottom=0;fontColor=#333333;strokeColor=#666666;" parent="eIMBk2BtrGEwLz7ibbDw-246" vertex="1">
          <mxGeometry y="70" width="250" height="30" as="geometry" />
        </mxCell>
        <mxCell id="eIMBk2BtrGEwLz7ibbDw-251" value="" style="shape=partialRectangle;overflow=hidden;connectable=0;fillColor=none;top=0;left=0;bottom=0;right=0;" parent="eIMBk2BtrGEwLz7ibbDw-250" vertex="1">
          <mxGeometry width="30" height="30" as="geometry">
            <mxRectangle width="30" height="30" as="alternateBounds" />
          </mxGeometry>
        </mxCell>
        <mxCell id="eIMBk2BtrGEwLz7ibbDw-252" value="TypeID             " style="shape=partialRectangle;overflow=hidden;connectable=0;fillColor=none;top=0;left=0;bottom=0;right=0;align=left;spacingLeft=6;" parent="eIMBk2BtrGEwLz7ibbDw-250" vertex="1">
          <mxGeometry x="30" width="220" height="30" as="geometry">
            <mxRectangle width="220" height="30" as="alternateBounds" />
          </mxGeometry>
        </mxCell>
        <mxCell id="eIMBk2BtrGEwLz7ibbDw-253" value="" style="shape=partialRectangle;collapsible=0;dropTarget=0;pointerEvents=0;points=[[0,0.5],[1,0.5]];portConstraint=eastwest;top=0;left=0;right=0;bottom=0;" parent="eIMBk2BtrGEwLz7ibbDw-246" vertex="1">
          <mxGeometry y="100" width="250" height="30" as="geometry" />
        </mxCell>
        <mxCell id="eIMBk2BtrGEwLz7ibbDw-254" value="" style="shape=partialRectangle;overflow=hidden;connectable=0;fillColor=none;top=0;left=0;bottom=0;right=0;" parent="eIMBk2BtrGEwLz7ibbDw-253" vertex="1">
          <mxGeometry width="30" height="30" as="geometry">
            <mxRectangle width="30" height="30" as="alternateBounds" />
          </mxGeometry>
        </mxCell>
        <mxCell id="eIMBk2BtrGEwLz7ibbDw-255" value="RefID              " style="shape=partialRectangle;overflow=hidden;connectable=0;fillColor=none;top=0;left=0;bottom=0;right=0;align=left;spacingLeft=6;" parent="eIMBk2BtrGEwLz7ibbDw-253" vertex="1">
          <mxGeometry x="30" width="220" height="30" as="geometry">
            <mxRectangle width="220" height="30" as="alternateBounds" />
          </mxGeometry>
        </mxCell>
        <mxCell id="eIMBk2BtrGEwLz7ibbDw-256" value="" style="shape=partialRectangle;collapsible=0;dropTarget=0;pointerEvents=0;fillColor=#dae8fc;points=[[0,0.5],[1,0.5]];portConstraint=eastwest;top=0;left=0;right=0;bottom=0;strokeColor=#6c8ebf;" parent="eIMBk2BtrGEwLz7ibbDw-246" vertex="1">
          <mxGeometry y="130" width="250" height="30" as="geometry" />
        </mxCell>
        <mxCell id="eIMBk2BtrGEwLz7ibbDw-257" value="" style="shape=partialRectangle;overflow=hidden;connectable=0;fillColor=#f5f5f5;top=0;left=0;bottom=0;right=0;fontColor=#333333;strokeColor=#666666;" parent="eIMBk2BtrGEwLz7ibbDw-256" vertex="1">
          <mxGeometry width="30" height="30" as="geometry">
            <mxRectangle width="30" height="30" as="alternateBounds" />
          </mxGeometry>
        </mxCell>
        <mxCell id="eIMBk2BtrGEwLz7ibbDw-258" value="UserID (FK) " style="shape=partialRectangle;overflow=hidden;connectable=0;fillColor=#f5f5f5;top=0;left=0;bottom=0;right=0;align=left;spacingLeft=6;fontColor=#333333;strokeColor=#666666;" parent="eIMBk2BtrGEwLz7ibbDw-256" vertex="1">
          <mxGeometry x="30" width="220" height="30" as="geometry">
            <mxRectangle width="220" height="30" as="alternateBounds" />
          </mxGeometry>
        </mxCell>
        <mxCell id="eIMBk2BtrGEwLz7ibbDw-259" value="" style="shape=partialRectangle;collapsible=0;dropTarget=0;pointerEvents=0;fillColor=#dae8fc;points=[[0,0.5],[1,0.5]];portConstraint=eastwest;top=0;left=0;right=0;bottom=0;strokeColor=#6c8ebf;" parent="eIMBk2BtrGEwLz7ibbDw-246" vertex="1">
          <mxGeometry y="160" width="250" height="30" as="geometry" />
        </mxCell>
        <mxCell id="eIMBk2BtrGEwLz7ibbDw-260" value="" style="shape=partialRectangle;overflow=hidden;connectable=0;top=0;left=0;bottom=0;right=0;" parent="eIMBk2BtrGEwLz7ibbDw-259" vertex="1">
          <mxGeometry width="30" height="30" as="geometry">
            <mxRectangle width="30" height="30" as="alternateBounds" />
          </mxGeometry>
        </mxCell>
        <mxCell id="eIMBk2BtrGEwLz7ibbDw-261" value="CreatedAt (Date)   " style="shape=partialRectangle;overflow=hidden;connectable=0;top=0;left=0;bottom=0;right=0;align=left;spacingLeft=6;" parent="eIMBk2BtrGEwLz7ibbDw-259" vertex="1">
          <mxGeometry x="30" width="220" height="30" as="geometry">
            <mxRectangle width="220" height="30" as="alternateBounds" />
          </mxGeometry>
        </mxCell>
        <mxCell id="eIMBk2BtrGEwLz7ibbDw-268" value="" style="endArrow=classic;html=1;rounded=0;exitX=0.469;exitY=1.167;exitDx=0;exitDy=0;exitPerimeter=0;" parent="1" edge="1">
          <mxGeometry relative="1" as="geometry">
            <mxPoint x="2200" y="250" as="sourcePoint" />
            <mxPoint x="2200" y="344.49" as="targetPoint" />
          </mxGeometry>
        </mxCell>
        <mxCell id="eIMBk2BtrGEwLz7ibbDw-269" value="1" style="edgeLabel;resizable=0;html=1;;align=left;verticalAlign=bottom;" parent="eIMBk2BtrGEwLz7ibbDw-268" connectable="0" vertex="1">
          <mxGeometry x="-1" relative="1" as="geometry">
            <mxPoint x="10" y="20" as="offset" />
          </mxGeometry>
        </mxCell>
        <mxCell id="eIMBk2BtrGEwLz7ibbDw-270" value="n" style="edgeLabel;resizable=0;html=1;;align=right;verticalAlign=bottom;" parent="eIMBk2BtrGEwLz7ibbDw-268" connectable="0" vertex="1">
          <mxGeometry x="1" relative="1" as="geometry">
            <mxPoint x="20" y="-4" as="offset" />
          </mxGeometry>
        </mxCell>
        <mxCell id="ViyJ_vo8ujkGDNAvHGH1-1" style="edgeStyle=orthogonalEdgeStyle;rounded=0;orthogonalLoop=1;jettySize=auto;html=1;exitX=0;exitY=0.5;exitDx=0;exitDy=0;" edge="1" parent="1" source="eIMBk2BtrGEwLz7ibbDw-117">
          <mxGeometry relative="1" as="geometry">
            <mxPoint x="900" y="504" as="targetPoint" />
          </mxGeometry>
        </mxCell>
        <mxCell id="ViyJ_vo8ujkGDNAvHGH1-2" value="" style="endArrow=classic;html=1;rounded=0;exitX=0.469;exitY=1.167;exitDx=0;exitDy=0;exitPerimeter=0;" edge="1" parent="1">
          <mxGeometry relative="1" as="geometry">
            <mxPoint x="2200" y="540" as="sourcePoint" />
            <mxPoint x="2200" y="634.49" as="targetPoint" />
          </mxGeometry>
        </mxCell>
        <mxCell id="ViyJ_vo8ujkGDNAvHGH1-3" value="1" style="edgeLabel;resizable=0;html=1;;align=left;verticalAlign=bottom;" connectable="0" vertex="1" parent="ViyJ_vo8ujkGDNAvHGH1-2">
          <mxGeometry x="-1" relative="1" as="geometry">
            <mxPoint x="10" y="30" as="offset" />
          </mxGeometry>
        </mxCell>
        <mxCell id="ViyJ_vo8ujkGDNAvHGH1-4" value="n" style="edgeLabel;resizable=0;html=1;;align=right;verticalAlign=bottom;" connectable="0" vertex="1" parent="ViyJ_vo8ujkGDNAvHGH1-2">
          <mxGeometry x="1" relative="1" as="geometry">
            <mxPoint x="20" y="-4" as="offset" />
          </mxGeometry>
        </mxCell>
        <mxCell id="ViyJ_vo8ujkGDNAvHGH1-6" value="Comment" style="shape=table;startSize=40;container=1;collapsible=1;childLayout=tableLayout;fixedRows=1;rowLines=0;fontStyle=1;align=center;resizeLast=1;fillColor=#dae8fc;strokeColor=#6c8ebf;" vertex="1" parent="1">
          <mxGeometry x="2100" y="640" width="250" height="250" as="geometry" />
        </mxCell>
        <mxCell id="ViyJ_vo8ujkGDNAvHGH1-7" value="" style="shape=partialRectangle;collapsible=0;dropTarget=0;pointerEvents=0;points=[[0,0.5],[1,0.5]];portConstraint=eastwest;top=0;left=0;right=0;bottom=1;" vertex="1" parent="ViyJ_vo8ujkGDNAvHGH1-6">
          <mxGeometry y="40" width="250" height="30" as="geometry" />
        </mxCell>
        <mxCell id="ViyJ_vo8ujkGDNAvHGH1-8" value="" style="shape=partialRectangle;overflow=hidden;connectable=0;fillColor=none;top=0;left=0;bottom=0;right=0;fontStyle=1;" vertex="1" parent="ViyJ_vo8ujkGDNAvHGH1-7">
          <mxGeometry width="30" height="30" as="geometry">
            <mxRectangle width="30" height="30" as="alternateBounds" />
          </mxGeometry>
        </mxCell>
        <mxCell id="ViyJ_vo8ujkGDNAvHGH1-9" value="ID (PK)" style="shape=partialRectangle;overflow=hidden;connectable=0;fillColor=none;top=0;left=0;bottom=0;right=0;align=left;spacingLeft=6;fontStyle=4;" vertex="1" parent="ViyJ_vo8ujkGDNAvHGH1-7">
          <mxGeometry x="30" width="220" height="30" as="geometry">
            <mxRectangle width="220" height="30" as="alternateBounds" />
          </mxGeometry>
        </mxCell>
        <mxCell id="ViyJ_vo8ujkGDNAvHGH1-10" value="" style="shape=partialRectangle;collapsible=0;dropTarget=0;pointerEvents=0;fillColor=#f5f5f5;points=[[0,0.5],[1,0.5]];portConstraint=eastwest;top=0;left=0;right=0;bottom=0;fontColor=#333333;strokeColor=#666666;" vertex="1" parent="ViyJ_vo8ujkGDNAvHGH1-6">
          <mxGeometry y="70" width="250" height="30" as="geometry" />
        </mxCell>
        <mxCell id="ViyJ_vo8ujkGDNAvHGH1-11" value="" style="shape=partialRectangle;overflow=hidden;connectable=0;fillColor=none;top=0;left=0;bottom=0;right=0;" vertex="1" parent="ViyJ_vo8ujkGDNAvHGH1-10">
          <mxGeometry width="30" height="30" as="geometry">
            <mxRectangle width="30" height="30" as="alternateBounds" />
          </mxGeometry>
        </mxCell>
        <mxCell id="ViyJ_vo8ujkGDNAvHGH1-12" value="TypeID             " style="shape=partialRectangle;overflow=hidden;connectable=0;fillColor=none;top=0;left=0;bottom=0;right=0;align=left;spacingLeft=6;" vertex="1" parent="ViyJ_vo8ujkGDNAvHGH1-10">
          <mxGeometry x="30" width="220" height="30" as="geometry">
            <mxRectangle width="220" height="30" as="alternateBounds" />
          </mxGeometry>
        </mxCell>
        <mxCell id="ViyJ_vo8ujkGDNAvHGH1-13" value="" style="shape=partialRectangle;collapsible=0;dropTarget=0;pointerEvents=0;points=[[0,0.5],[1,0.5]];portConstraint=eastwest;top=0;left=0;right=0;bottom=0;" vertex="1" parent="ViyJ_vo8ujkGDNAvHGH1-6">
          <mxGeometry y="100" width="250" height="30" as="geometry" />
        </mxCell>
        <mxCell id="ViyJ_vo8ujkGDNAvHGH1-14" value="" style="shape=partialRectangle;overflow=hidden;connectable=0;fillColor=none;top=0;left=0;bottom=0;right=0;" vertex="1" parent="ViyJ_vo8ujkGDNAvHGH1-13">
          <mxGeometry width="30" height="30" as="geometry">
            <mxRectangle width="30" height="30" as="alternateBounds" />
          </mxGeometry>
        </mxCell>
        <mxCell id="ViyJ_vo8ujkGDNAvHGH1-15" value="RefID              " style="shape=partialRectangle;overflow=hidden;connectable=0;fillColor=none;top=0;left=0;bottom=0;right=0;align=left;spacingLeft=6;" vertex="1" parent="ViyJ_vo8ujkGDNAvHGH1-13">
          <mxGeometry x="30" width="220" height="30" as="geometry">
            <mxRectangle width="220" height="30" as="alternateBounds" />
          </mxGeometry>
        </mxCell>
        <mxCell id="ViyJ_vo8ujkGDNAvHGH1-16" value="" style="shape=partialRectangle;collapsible=0;dropTarget=0;pointerEvents=0;fillColor=#dae8fc;points=[[0,0.5],[1,0.5]];portConstraint=eastwest;top=0;left=0;right=0;bottom=0;strokeColor=#6c8ebf;" vertex="1" parent="ViyJ_vo8ujkGDNAvHGH1-6">
          <mxGeometry y="130" width="250" height="30" as="geometry" />
        </mxCell>
        <mxCell id="ViyJ_vo8ujkGDNAvHGH1-17" value="" style="shape=partialRectangle;overflow=hidden;connectable=0;fillColor=#f5f5f5;top=0;left=0;bottom=0;right=0;fontColor=#333333;strokeColor=#666666;" vertex="1" parent="ViyJ_vo8ujkGDNAvHGH1-16">
          <mxGeometry width="30" height="30" as="geometry">
            <mxRectangle width="30" height="30" as="alternateBounds" />
          </mxGeometry>
        </mxCell>
        <mxCell id="ViyJ_vo8ujkGDNAvHGH1-18" value="UserID (FK) " style="shape=partialRectangle;overflow=hidden;connectable=0;fillColor=#f5f5f5;top=0;left=0;bottom=0;right=0;align=left;spacingLeft=6;fontColor=#333333;strokeColor=#666666;" vertex="1" parent="ViyJ_vo8ujkGDNAvHGH1-16">
          <mxGeometry x="30" width="220" height="30" as="geometry">
            <mxRectangle width="220" height="30" as="alternateBounds" />
          </mxGeometry>
        </mxCell>
        <mxCell id="ViyJ_vo8ujkGDNAvHGH1-22" value="" style="shape=partialRectangle;collapsible=0;dropTarget=0;pointerEvents=0;fillColor=#dae8fc;points=[[0,0.5],[1,0.5]];portConstraint=eastwest;top=0;left=0;right=0;bottom=0;strokeColor=#6c8ebf;" vertex="1" parent="ViyJ_vo8ujkGDNAvHGH1-6">
          <mxGeometry y="160" width="250" height="30" as="geometry" />
        </mxCell>
        <mxCell id="ViyJ_vo8ujkGDNAvHGH1-23" value="" style="shape=partialRectangle;overflow=hidden;connectable=0;top=0;left=0;bottom=0;right=0;" vertex="1" parent="ViyJ_vo8ujkGDNAvHGH1-22">
          <mxGeometry width="30" height="30" as="geometry">
            <mxRectangle width="30" height="30" as="alternateBounds" />
          </mxGeometry>
        </mxCell>
        <mxCell id="ViyJ_vo8ujkGDNAvHGH1-24" value="Content (text)" style="shape=partialRectangle;overflow=hidden;connectable=0;top=0;left=0;bottom=0;right=0;align=left;spacingLeft=6;" vertex="1" parent="ViyJ_vo8ujkGDNAvHGH1-22">
          <mxGeometry x="30" width="220" height="30" as="geometry">
            <mxRectangle width="220" height="30" as="alternateBounds" />
          </mxGeometry>
        </mxCell>
        <mxCell id="ViyJ_vo8ujkGDNAvHGH1-25" value="" style="shape=partialRectangle;collapsible=0;dropTarget=0;pointerEvents=0;fillColor=#f5f5f5;points=[[0,0.5],[1,0.5]];portConstraint=eastwest;top=0;left=0;right=0;bottom=0;strokeColor=#666666;fontColor=#333333;" vertex="1" parent="ViyJ_vo8ujkGDNAvHGH1-6">
          <mxGeometry y="190" width="250" height="30" as="geometry" />
        </mxCell>
        <mxCell id="ViyJ_vo8ujkGDNAvHGH1-26" value="" style="shape=partialRectangle;overflow=hidden;connectable=0;top=0;left=0;bottom=0;right=0;" vertex="1" parent="ViyJ_vo8ujkGDNAvHGH1-25">
          <mxGeometry width="30" height="30" as="geometry">
            <mxRectangle width="30" height="30" as="alternateBounds" />
          </mxGeometry>
        </mxCell>
        <mxCell id="ViyJ_vo8ujkGDNAvHGH1-27" value="CommentID /FK)" style="shape=partialRectangle;overflow=hidden;connectable=0;top=0;left=0;bottom=0;right=0;align=left;spacingLeft=6;" vertex="1" parent="ViyJ_vo8ujkGDNAvHGH1-25">
          <mxGeometry x="30" width="220" height="30" as="geometry">
            <mxRectangle width="220" height="30" as="alternateBounds" />
          </mxGeometry>
        </mxCell>
        <mxCell id="ViyJ_vo8ujkGDNAvHGH1-19" value="" style="shape=partialRectangle;collapsible=0;dropTarget=0;pointerEvents=0;fillColor=#dae8fc;points=[[0,0.5],[1,0.5]];portConstraint=eastwest;top=0;left=0;right=0;bottom=0;strokeColor=#6c8ebf;" vertex="1" parent="ViyJ_vo8ujkGDNAvHGH1-6">
          <mxGeometry y="220" width="250" height="30" as="geometry" />
        </mxCell>
        <mxCell id="ViyJ_vo8ujkGDNAvHGH1-20" value="" style="shape=partialRectangle;overflow=hidden;connectable=0;top=0;left=0;bottom=0;right=0;" vertex="1" parent="ViyJ_vo8ujkGDNAvHGH1-19">
          <mxGeometry width="30" height="30" as="geometry">
            <mxRectangle width="30" height="30" as="alternateBounds" />
          </mxGeometry>
        </mxCell>
        <mxCell id="ViyJ_vo8ujkGDNAvHGH1-21" value="CreatedAt (Date)" style="shape=partialRectangle;overflow=hidden;connectable=0;top=0;left=0;bottom=0;right=0;align=left;spacingLeft=6;" vertex="1" parent="ViyJ_vo8ujkGDNAvHGH1-19">
          <mxGeometry x="30" width="220" height="30" as="geometry">
            <mxRectangle width="220" height="30" as="alternateBounds" />
          </mxGeometry>
        </mxCell>
        <mxCell id="ViyJ_vo8ujkGDNAvHGH1-28" value="Friend" style="shape=table;startSize=40;container=1;collapsible=1;childLayout=tableLayout;fixedRows=1;rowLines=0;fontStyle=1;align=center;resizeLast=1;fillColor=#dae8fc;strokeColor=#6c8ebf;" vertex="1" parent="1">
          <mxGeometry x="1710" y="840" width="250" height="220" as="geometry" />
        </mxCell>
        <mxCell id="ViyJ_vo8ujkGDNAvHGH1-29" value="" style="shape=partialRectangle;collapsible=0;dropTarget=0;pointerEvents=0;points=[[0,0.5],[1,0.5]];portConstraint=eastwest;top=0;left=0;right=0;bottom=1;" vertex="1" parent="ViyJ_vo8ujkGDNAvHGH1-28">
          <mxGeometry y="40" width="250" height="30" as="geometry" />
        </mxCell>
        <mxCell id="ViyJ_vo8ujkGDNAvHGH1-30" value="" style="shape=partialRectangle;overflow=hidden;connectable=0;fillColor=none;top=0;left=0;bottom=0;right=0;fontStyle=1;" vertex="1" parent="ViyJ_vo8ujkGDNAvHGH1-29">
          <mxGeometry width="30" height="30" as="geometry">
            <mxRectangle width="30" height="30" as="alternateBounds" />
          </mxGeometry>
        </mxCell>
        <mxCell id="ViyJ_vo8ujkGDNAvHGH1-31" value="ID (PK)" style="shape=partialRectangle;overflow=hidden;connectable=0;fillColor=none;top=0;left=0;bottom=0;right=0;align=left;spacingLeft=6;fontStyle=4;" vertex="1" parent="ViyJ_vo8ujkGDNAvHGH1-29">
          <mxGeometry x="30" width="220" height="30" as="geometry">
            <mxRectangle width="220" height="30" as="alternateBounds" />
          </mxGeometry>
        </mxCell>
        <mxCell id="ViyJ_vo8ujkGDNAvHGH1-32" value="" style="shape=partialRectangle;collapsible=0;dropTarget=0;pointerEvents=0;fillColor=#f5f5f5;points=[[0,0.5],[1,0.5]];portConstraint=eastwest;top=0;left=0;right=0;bottom=0;fontColor=#333333;strokeColor=#666666;" vertex="1" parent="ViyJ_vo8ujkGDNAvHGH1-28">
          <mxGeometry y="70" width="250" height="30" as="geometry" />
        </mxCell>
        <mxCell id="ViyJ_vo8ujkGDNAvHGH1-33" value="" style="shape=partialRectangle;overflow=hidden;connectable=0;fillColor=none;top=0;left=0;bottom=0;right=0;" vertex="1" parent="ViyJ_vo8ujkGDNAvHGH1-32">
          <mxGeometry width="30" height="30" as="geometry">
            <mxRectangle width="30" height="30" as="alternateBounds" />
          </mxGeometry>
        </mxCell>
        <mxCell id="ViyJ_vo8ujkGDNAvHGH1-34" value="SenderID (FK)" style="shape=partialRectangle;overflow=hidden;connectable=0;fillColor=none;top=0;left=0;bottom=0;right=0;align=left;spacingLeft=6;" vertex="1" parent="ViyJ_vo8ujkGDNAvHGH1-32">
          <mxGeometry x="30" width="220" height="30" as="geometry">
            <mxRectangle width="220" height="30" as="alternateBounds" />
          </mxGeometry>
        </mxCell>
        <mxCell id="ViyJ_vo8ujkGDNAvHGH1-35" value="" style="shape=partialRectangle;collapsible=0;dropTarget=0;pointerEvents=0;points=[[0,0.5],[1,0.5]];portConstraint=eastwest;top=0;left=0;right=0;bottom=0;" vertex="1" parent="ViyJ_vo8ujkGDNAvHGH1-28">
          <mxGeometry y="100" width="250" height="30" as="geometry" />
        </mxCell>
        <mxCell id="ViyJ_vo8ujkGDNAvHGH1-36" value="" style="shape=partialRectangle;overflow=hidden;connectable=0;fillColor=none;top=0;left=0;bottom=0;right=0;" vertex="1" parent="ViyJ_vo8ujkGDNAvHGH1-35">
          <mxGeometry width="30" height="30" as="geometry">
            <mxRectangle width="30" height="30" as="alternateBounds" />
          </mxGeometry>
        </mxCell>
        <mxCell id="ViyJ_vo8ujkGDNAvHGH1-37" value="ReceptorID (FK) " style="shape=partialRectangle;overflow=hidden;connectable=0;fillColor=none;top=0;left=0;bottom=0;right=0;align=left;spacingLeft=6;" vertex="1" parent="ViyJ_vo8ujkGDNAvHGH1-35">
          <mxGeometry x="30" width="220" height="30" as="geometry">
            <mxRectangle width="220" height="30" as="alternateBounds" />
          </mxGeometry>
        </mxCell>
        <mxCell id="ViyJ_vo8ujkGDNAvHGH1-38" value="" style="shape=partialRectangle;collapsible=0;dropTarget=0;pointerEvents=0;fillColor=#dae8fc;points=[[0,0.5],[1,0.5]];portConstraint=eastwest;top=0;left=0;right=0;bottom=0;strokeColor=#6c8ebf;" vertex="1" parent="ViyJ_vo8ujkGDNAvHGH1-28">
          <mxGeometry y="130" width="250" height="30" as="geometry" />
        </mxCell>
        <mxCell id="ViyJ_vo8ujkGDNAvHGH1-39" value="" style="shape=partialRectangle;overflow=hidden;connectable=0;fillColor=#f5f5f5;top=0;left=0;bottom=0;right=0;fontColor=#333333;strokeColor=#666666;" vertex="1" parent="ViyJ_vo8ujkGDNAvHGH1-38">
          <mxGeometry width="30" height="30" as="geometry">
            <mxRectangle width="30" height="30" as="alternateBounds" />
          </mxGeometry>
        </mxCell>
        <mxCell id="ViyJ_vo8ujkGDNAvHGH1-40" value="IsAccepted (Bool)" style="shape=partialRectangle;overflow=hidden;connectable=0;fillColor=#f5f5f5;top=0;left=0;bottom=0;right=0;align=left;spacingLeft=6;fontColor=#333333;strokeColor=#666666;" vertex="1" parent="ViyJ_vo8ujkGDNAvHGH1-38">
          <mxGeometry x="30" width="220" height="30" as="geometry">
            <mxRectangle width="220" height="30" as="alternateBounds" />
          </mxGeometry>
        </mxCell>
        <mxCell id="ViyJ_vo8ujkGDNAvHGH1-47" value="" style="shape=partialRectangle;collapsible=0;dropTarget=0;pointerEvents=0;fillColor=#dae8fc;points=[[0,0.5],[1,0.5]];portConstraint=eastwest;top=0;left=0;right=0;bottom=0;strokeColor=#6c8ebf;" vertex="1" parent="ViyJ_vo8ujkGDNAvHGH1-28">
          <mxGeometry y="160" width="250" height="30" as="geometry" />
        </mxCell>
        <mxCell id="ViyJ_vo8ujkGDNAvHGH1-48" value="" style="shape=partialRectangle;overflow=hidden;connectable=0;top=0;left=0;bottom=0;right=0;" vertex="1" parent="ViyJ_vo8ujkGDNAvHGH1-47">
          <mxGeometry width="30" height="30" as="geometry">
            <mxRectangle width="30" height="30" as="alternateBounds" />
          </mxGeometry>
        </mxCell>
        <mxCell id="ViyJ_vo8ujkGDNAvHGH1-49" value="IsReaded (Bool)  " style="shape=partialRectangle;overflow=hidden;connectable=0;top=0;left=0;bottom=0;right=0;align=left;spacingLeft=6;" vertex="1" parent="ViyJ_vo8ujkGDNAvHGH1-47">
          <mxGeometry x="30" width="220" height="30" as="geometry">
            <mxRectangle width="220" height="30" as="alternateBounds" />
          </mxGeometry>
        </mxCell>
        <mxCell id="ViyJ_vo8ujkGDNAvHGH1-41" value="" style="shape=partialRectangle;collapsible=0;dropTarget=0;pointerEvents=0;fillColor=#f5f5f5;points=[[0,0.5],[1,0.5]];portConstraint=eastwest;top=0;left=0;right=0;bottom=0;strokeColor=#666666;fontColor=#333333;" vertex="1" parent="ViyJ_vo8ujkGDNAvHGH1-28">
          <mxGeometry y="190" width="250" height="30" as="geometry" />
        </mxCell>
        <mxCell id="ViyJ_vo8ujkGDNAvHGH1-42" value="" style="shape=partialRectangle;overflow=hidden;connectable=0;top=0;left=0;bottom=0;right=0;" vertex="1" parent="ViyJ_vo8ujkGDNAvHGH1-41">
          <mxGeometry width="30" height="30" as="geometry">
            <mxRectangle width="30" height="30" as="alternateBounds" />
          </mxGeometry>
        </mxCell>
        <mxCell id="ViyJ_vo8ujkGDNAvHGH1-43" value="CreatedAt (Date)" style="shape=partialRectangle;overflow=hidden;connectable=0;top=0;left=0;bottom=0;right=0;align=left;spacingLeft=6;" vertex="1" parent="ViyJ_vo8ujkGDNAvHGH1-41">
          <mxGeometry x="30" width="220" height="30" as="geometry">
            <mxRectangle width="220" height="30" as="alternateBounds" />
          </mxGeometry>
        </mxCell>
        <mxCell id="ViyJ_vo8ujkGDNAvHGH1-50" value="" style="endArrow=classic;html=1;rounded=0;exitX=-0.019;exitY=0.287;exitDx=0;exitDy=0;exitPerimeter=0;" edge="1" parent="1" source="ViyJ_vo8ujkGDNAvHGH1-25">
          <mxGeometry relative="1" as="geometry">
            <mxPoint x="2020" y="840" as="sourcePoint" />
            <mxPoint x="1970" y="960" as="targetPoint" />
            <Array as="points">
              <mxPoint x="2000" y="840" />
              <mxPoint x="2000" y="960" />
            </Array>
          </mxGeometry>
        </mxCell>
        <mxCell id="ViyJ_vo8ujkGDNAvHGH1-51" value="1" style="edgeLabel;resizable=0;html=1;;align=left;verticalAlign=bottom;" connectable="0" vertex="1" parent="ViyJ_vo8ujkGDNAvHGH1-50">
          <mxGeometry x="-1" relative="1" as="geometry">
            <mxPoint x="-30" y="25" as="offset" />
          </mxGeometry>
        </mxCell>
        <mxCell id="ViyJ_vo8ujkGDNAvHGH1-52" value="n" style="edgeLabel;resizable=0;html=1;;align=right;verticalAlign=bottom;" connectable="0" vertex="1" parent="ViyJ_vo8ujkGDNAvHGH1-50">
          <mxGeometry x="1" relative="1" as="geometry">
            <mxPoint x="20" y="-4" as="offset" />
          </mxGeometry>
        </mxCell>
        <mxCell id="ViyJ_vo8ujkGDNAvHGH1-53" value="Conversation" style="shape=table;startSize=40;container=1;collapsible=1;childLayout=tableLayout;fixedRows=1;rowLines=0;fontStyle=1;align=center;resizeLast=1;fillColor=#dae8fc;strokeColor=#6c8ebf;" vertex="1" parent="1">
          <mxGeometry x="1390" y="600" width="250" height="160" as="geometry" />
        </mxCell>
        <mxCell id="ViyJ_vo8ujkGDNAvHGH1-54" value="" style="shape=partialRectangle;collapsible=0;dropTarget=0;pointerEvents=0;points=[[0,0.5],[1,0.5]];portConstraint=eastwest;top=0;left=0;right=0;bottom=1;" vertex="1" parent="ViyJ_vo8ujkGDNAvHGH1-53">
          <mxGeometry y="40" width="250" height="30" as="geometry" />
        </mxCell>
        <mxCell id="ViyJ_vo8ujkGDNAvHGH1-55" value="" style="shape=partialRectangle;overflow=hidden;connectable=0;fillColor=none;top=0;left=0;bottom=0;right=0;fontStyle=1;" vertex="1" parent="ViyJ_vo8ujkGDNAvHGH1-54">
          <mxGeometry width="30" height="30" as="geometry">
            <mxRectangle width="30" height="30" as="alternateBounds" />
          </mxGeometry>
        </mxCell>
        <mxCell id="ViyJ_vo8ujkGDNAvHGH1-56" value="ID Primary Key" style="shape=partialRectangle;overflow=hidden;connectable=0;fillColor=none;top=0;left=0;bottom=0;right=0;align=left;spacingLeft=6;fontStyle=4;" vertex="1" parent="ViyJ_vo8ujkGDNAvHGH1-54">
          <mxGeometry x="30" width="220" height="30" as="geometry">
            <mxRectangle width="220" height="30" as="alternateBounds" />
          </mxGeometry>
        </mxCell>
        <mxCell id="ViyJ_vo8ujkGDNAvHGH1-57" value="" style="shape=partialRectangle;collapsible=0;dropTarget=0;pointerEvents=0;fillColor=#f5f5f5;points=[[0,0.5],[1,0.5]];portConstraint=eastwest;top=0;left=0;right=0;bottom=0;fontColor=#333333;strokeColor=#666666;" vertex="1" parent="ViyJ_vo8ujkGDNAvHGH1-53">
          <mxGeometry y="70" width="250" height="30" as="geometry" />
        </mxCell>
        <mxCell id="ViyJ_vo8ujkGDNAvHGH1-58" value="" style="shape=partialRectangle;overflow=hidden;connectable=0;fillColor=none;top=0;left=0;bottom=0;right=0;" vertex="1" parent="ViyJ_vo8ujkGDNAvHGH1-57">
          <mxGeometry width="30" height="30" as="geometry">
            <mxRectangle width="30" height="30" as="alternateBounds" />
          </mxGeometry>
        </mxCell>
        <mxCell id="ViyJ_vo8ujkGDNAvHGH1-59" value="SenderID (FK)" style="shape=partialRectangle;overflow=hidden;connectable=0;fillColor=none;top=0;left=0;bottom=0;right=0;align=left;spacingLeft=6;" vertex="1" parent="ViyJ_vo8ujkGDNAvHGH1-57">
          <mxGeometry x="30" width="220" height="30" as="geometry">
            <mxRectangle width="220" height="30" as="alternateBounds" />
          </mxGeometry>
        </mxCell>
        <mxCell id="ViyJ_vo8ujkGDNAvHGH1-60" value="" style="shape=partialRectangle;collapsible=0;dropTarget=0;pointerEvents=0;points=[[0,0.5],[1,0.5]];portConstraint=eastwest;top=0;left=0;right=0;bottom=0;" vertex="1" parent="ViyJ_vo8ujkGDNAvHGH1-53">
          <mxGeometry y="100" width="250" height="30" as="geometry" />
        </mxCell>
        <mxCell id="ViyJ_vo8ujkGDNAvHGH1-61" value="" style="shape=partialRectangle;overflow=hidden;connectable=0;fillColor=none;top=0;left=0;bottom=0;right=0;" vertex="1" parent="ViyJ_vo8ujkGDNAvHGH1-60">
          <mxGeometry width="30" height="30" as="geometry">
            <mxRectangle width="30" height="30" as="alternateBounds" />
          </mxGeometry>
        </mxCell>
        <mxCell id="ViyJ_vo8ujkGDNAvHGH1-62" value="Receptor  (FK)" style="shape=partialRectangle;overflow=hidden;connectable=0;fillColor=none;top=0;left=0;bottom=0;right=0;align=left;spacingLeft=6;" vertex="1" parent="ViyJ_vo8ujkGDNAvHGH1-60">
          <mxGeometry x="30" width="220" height="30" as="geometry">
            <mxRectangle width="220" height="30" as="alternateBounds" />
          </mxGeometry>
        </mxCell>
        <mxCell id="ViyJ_vo8ujkGDNAvHGH1-63" value="" style="shape=partialRectangle;collapsible=0;dropTarget=0;pointerEvents=0;fillColor=#dae8fc;points=[[0,0.5],[1,0.5]];portConstraint=eastwest;top=0;left=0;right=0;bottom=0;strokeColor=#6c8ebf;" vertex="1" parent="ViyJ_vo8ujkGDNAvHGH1-53">
          <mxGeometry y="130" width="250" height="30" as="geometry" />
        </mxCell>
        <mxCell id="ViyJ_vo8ujkGDNAvHGH1-64" value="" style="shape=partialRectangle;overflow=hidden;connectable=0;fillColor=#f5f5f5;top=0;left=0;bottom=0;right=0;fontColor=#333333;strokeColor=#666666;" vertex="1" parent="ViyJ_vo8ujkGDNAvHGH1-63">
          <mxGeometry width="30" height="30" as="geometry">
            <mxRectangle width="30" height="30" as="alternateBounds" />
          </mxGeometry>
        </mxCell>
        <mxCell id="ViyJ_vo8ujkGDNAvHGH1-65" value="CreatedAt (Date)" style="shape=partialRectangle;overflow=hidden;connectable=0;fillColor=#f5f5f5;top=0;left=0;bottom=0;right=0;align=left;spacingLeft=6;fontColor=#333333;strokeColor=#666666;" vertex="1" parent="ViyJ_vo8ujkGDNAvHGH1-63">
          <mxGeometry x="30" width="220" height="30" as="geometry">
            <mxRectangle width="220" height="30" as="alternateBounds" />
          </mxGeometry>
        </mxCell>
        <mxCell id="ViyJ_vo8ujkGDNAvHGH1-66" value="" style="endArrow=classic;html=1;rounded=0;exitX=0.362;exitY=-0.025;exitDx=0;exitDy=0;exitPerimeter=0;entryX=1.014;entryY=0.287;entryDx=0;entryDy=0;entryPerimeter=0;" edge="1" parent="1" source="ViyJ_vo8ujkGDNAvHGH1-28" target="ViyJ_vo8ujkGDNAvHGH1-57">
          <mxGeometry relative="1" as="geometry">
            <mxPoint x="1826.75" y="799.4000000000001" as="sourcePoint" />
            <mxPoint x="1820" y="680" as="targetPoint" />
            <Array as="points">
              <mxPoint x="1800" y="800" />
              <mxPoint x="1800" y="740" />
              <mxPoint x="1800" y="680" />
            </Array>
          </mxGeometry>
        </mxCell>
        <mxCell id="ViyJ_vo8ujkGDNAvHGH1-67" value="1" style="edgeLabel;resizable=0;html=1;;align=left;verticalAlign=bottom;" connectable="0" vertex="1" parent="ViyJ_vo8ujkGDNAvHGH1-66">
          <mxGeometry x="-1" relative="1" as="geometry">
            <mxPoint x="-20" y="-4" as="offset" />
          </mxGeometry>
        </mxCell>
        <mxCell id="ViyJ_vo8ujkGDNAvHGH1-68" value="n" style="edgeLabel;resizable=0;html=1;;align=right;verticalAlign=bottom;" connectable="0" vertex="1" parent="ViyJ_vo8ujkGDNAvHGH1-66">
          <mxGeometry x="1" relative="1" as="geometry">
            <mxPoint x="20" y="-4" as="offset" />
          </mxGeometry>
        </mxCell>
        <mxCell id="ViyJ_vo8ujkGDNAvHGH1-69" value="Team" style="shape=table;startSize=40;container=1;collapsible=1;childLayout=tableLayout;fixedRows=1;rowLines=0;fontStyle=1;align=center;resizeLast=1;fillColor=#dae8fc;strokeColor=#6c8ebf;" vertex="1" parent="1">
          <mxGeometry x="1320" y="840" width="250" height="250" as="geometry" />
        </mxCell>
        <mxCell id="ViyJ_vo8ujkGDNAvHGH1-70" value="" style="shape=partialRectangle;collapsible=0;dropTarget=0;pointerEvents=0;points=[[0,0.5],[1,0.5]];portConstraint=eastwest;top=0;left=0;right=0;bottom=1;" vertex="1" parent="ViyJ_vo8ujkGDNAvHGH1-69">
          <mxGeometry y="40" width="250" height="30" as="geometry" />
        </mxCell>
        <mxCell id="ViyJ_vo8ujkGDNAvHGH1-71" value="" style="shape=partialRectangle;overflow=hidden;connectable=0;fillColor=none;top=0;left=0;bottom=0;right=0;fontStyle=1;" vertex="1" parent="ViyJ_vo8ujkGDNAvHGH1-70">
          <mxGeometry width="30" height="30" as="geometry">
            <mxRectangle width="30" height="30" as="alternateBounds" />
          </mxGeometry>
        </mxCell>
        <mxCell id="ViyJ_vo8ujkGDNAvHGH1-72" value="ID Primary Key" style="shape=partialRectangle;overflow=hidden;connectable=0;fillColor=none;top=0;left=0;bottom=0;right=0;align=left;spacingLeft=6;fontStyle=4;" vertex="1" parent="ViyJ_vo8ujkGDNAvHGH1-70">
          <mxGeometry x="30" width="220" height="30" as="geometry">
            <mxRectangle width="220" height="30" as="alternateBounds" />
          </mxGeometry>
        </mxCell>
        <mxCell id="ViyJ_vo8ujkGDNAvHGH1-73" value="" style="shape=partialRectangle;collapsible=0;dropTarget=0;pointerEvents=0;fillColor=#f5f5f5;points=[[0,0.5],[1,0.5]];portConstraint=eastwest;top=0;left=0;right=0;bottom=0;fontColor=#333333;strokeColor=#666666;" vertex="1" parent="ViyJ_vo8ujkGDNAvHGH1-69">
          <mxGeometry y="70" width="250" height="30" as="geometry" />
        </mxCell>
        <mxCell id="ViyJ_vo8ujkGDNAvHGH1-74" value="" style="shape=partialRectangle;overflow=hidden;connectable=0;fillColor=none;top=0;left=0;bottom=0;right=0;" vertex="1" parent="ViyJ_vo8ujkGDNAvHGH1-73">
          <mxGeometry width="30" height="30" as="geometry">
            <mxRectangle width="30" height="30" as="alternateBounds" />
          </mxGeometry>
        </mxCell>
        <mxCell id="ViyJ_vo8ujkGDNAvHGH1-75" value="Image" style="shape=partialRectangle;overflow=hidden;connectable=0;fillColor=none;top=0;left=0;bottom=0;right=0;align=left;spacingLeft=6;" vertex="1" parent="ViyJ_vo8ujkGDNAvHGH1-73">
          <mxGeometry x="30" width="220" height="30" as="geometry">
            <mxRectangle width="220" height="30" as="alternateBounds" />
          </mxGeometry>
        </mxCell>
        <mxCell id="ViyJ_vo8ujkGDNAvHGH1-76" value="" style="shape=partialRectangle;collapsible=0;dropTarget=0;pointerEvents=0;points=[[0,0.5],[1,0.5]];portConstraint=eastwest;top=0;left=0;right=0;bottom=0;" vertex="1" parent="ViyJ_vo8ujkGDNAvHGH1-69">
          <mxGeometry y="100" width="250" height="30" as="geometry" />
        </mxCell>
        <mxCell id="ViyJ_vo8ujkGDNAvHGH1-77" value="" style="shape=partialRectangle;overflow=hidden;connectable=0;fillColor=none;top=0;left=0;bottom=0;right=0;" vertex="1" parent="ViyJ_vo8ujkGDNAvHGH1-76">
          <mxGeometry width="30" height="30" as="geometry">
            <mxRectangle width="30" height="30" as="alternateBounds" />
          </mxGeometry>
        </mxCell>
        <mxCell id="ViyJ_vo8ujkGDNAvHGH1-78" value="Title" style="shape=partialRectangle;overflow=hidden;connectable=0;fillColor=none;top=0;left=0;bottom=0;right=0;align=left;spacingLeft=6;" vertex="1" parent="ViyJ_vo8ujkGDNAvHGH1-76">
          <mxGeometry x="30" width="220" height="30" as="geometry">
            <mxRectangle width="220" height="30" as="alternateBounds" />
          </mxGeometry>
        </mxCell>
        <mxCell id="ViyJ_vo8ujkGDNAvHGH1-88" value="" style="shape=partialRectangle;collapsible=0;dropTarget=0;pointerEvents=0;fillColor=#dae8fc;points=[[0,0.5],[1,0.5]];portConstraint=eastwest;top=0;left=0;right=0;bottom=0;strokeColor=#6c8ebf;" vertex="1" parent="ViyJ_vo8ujkGDNAvHGH1-69">
          <mxGeometry y="130" width="250" height="30" as="geometry" />
        </mxCell>
        <mxCell id="ViyJ_vo8ujkGDNAvHGH1-89" value="" style="shape=partialRectangle;overflow=hidden;connectable=0;fillColor=#f5f5f5;top=0;left=0;bottom=0;right=0;fontColor=#333333;strokeColor=#666666;" vertex="1" parent="ViyJ_vo8ujkGDNAvHGH1-88">
          <mxGeometry width="30" height="30" as="geometry">
            <mxRectangle width="30" height="30" as="alternateBounds" />
          </mxGeometry>
        </mxCell>
        <mxCell id="ViyJ_vo8ujkGDNAvHGH1-90" value="Description" style="shape=partialRectangle;overflow=hidden;connectable=0;fillColor=#f5f5f5;top=0;left=0;bottom=0;right=0;align=left;spacingLeft=6;fontColor=#333333;strokeColor=#666666;" vertex="1" parent="ViyJ_vo8ujkGDNAvHGH1-88">
          <mxGeometry x="30" width="220" height="30" as="geometry">
            <mxRectangle width="220" height="30" as="alternateBounds" />
          </mxGeometry>
        </mxCell>
        <mxCell id="ViyJ_vo8ujkGDNAvHGH1-91" value="" style="shape=partialRectangle;collapsible=0;dropTarget=0;pointerEvents=0;fillColor=#dae8fc;points=[[0,0.5],[1,0.5]];portConstraint=eastwest;top=0;left=0;right=0;bottom=0;strokeColor=#6c8ebf;" vertex="1" parent="ViyJ_vo8ujkGDNAvHGH1-69">
          <mxGeometry y="160" width="250" height="30" as="geometry" />
        </mxCell>
        <mxCell id="ViyJ_vo8ujkGDNAvHGH1-92" value="" style="shape=partialRectangle;overflow=hidden;connectable=0;fillColor=#f5f5f5;top=0;left=0;bottom=0;right=0;fontColor=#333333;strokeColor=#666666;" vertex="1" parent="ViyJ_vo8ujkGDNAvHGH1-91">
          <mxGeometry width="30" height="30" as="geometry">
            <mxRectangle width="30" height="30" as="alternateBounds" />
          </mxGeometry>
        </mxCell>
        <mxCell id="ViyJ_vo8ujkGDNAvHGH1-93" value="CreatedAt (Date)" style="shape=partialRectangle;overflow=hidden;connectable=0;fillColor=#f5f5f5;top=0;left=0;bottom=0;right=0;align=left;spacingLeft=6;fontColor=#333333;strokeColor=#666666;" vertex="1" parent="ViyJ_vo8ujkGDNAvHGH1-91">
          <mxGeometry x="30" width="220" height="30" as="geometry">
            <mxRectangle width="220" height="30" as="alternateBounds" />
          </mxGeometry>
        </mxCell>
        <mxCell id="ViyJ_vo8ujkGDNAvHGH1-97" value="" style="shape=partialRectangle;collapsible=0;dropTarget=0;pointerEvents=0;fillColor=#dae8fc;points=[[0,0.5],[1,0.5]];portConstraint=eastwest;top=0;left=0;right=0;bottom=0;strokeColor=#6c8ebf;" vertex="1" parent="ViyJ_vo8ujkGDNAvHGH1-69">
          <mxGeometry y="190" width="250" height="30" as="geometry" />
        </mxCell>
        <mxCell id="ViyJ_vo8ujkGDNAvHGH1-98" value="" style="shape=partialRectangle;overflow=hidden;connectable=0;fillColor=#f5f5f5;top=0;left=0;bottom=0;right=0;fontColor=#333333;strokeColor=#666666;" vertex="1" parent="ViyJ_vo8ujkGDNAvHGH1-97">
          <mxGeometry width="30" height="30" as="geometry">
            <mxRectangle width="30" height="30" as="alternateBounds" />
          </mxGeometry>
        </mxCell>
        <mxCell id="ViyJ_vo8ujkGDNAvHGH1-99" value="Status" style="shape=partialRectangle;overflow=hidden;connectable=0;fillColor=#f5f5f5;top=0;left=0;bottom=0;right=0;align=left;spacingLeft=6;fontColor=#333333;strokeColor=#666666;" vertex="1" parent="ViyJ_vo8ujkGDNAvHGH1-97">
          <mxGeometry x="30" width="220" height="30" as="geometry">
            <mxRectangle width="220" height="30" as="alternateBounds" />
          </mxGeometry>
        </mxCell>
        <mxCell id="ViyJ_vo8ujkGDNAvHGH1-79" value="" style="shape=partialRectangle;collapsible=0;dropTarget=0;pointerEvents=0;fillColor=#dae8fc;points=[[0,0.5],[1,0.5]];portConstraint=eastwest;top=0;left=0;right=0;bottom=0;strokeColor=#6c8ebf;" vertex="1" parent="ViyJ_vo8ujkGDNAvHGH1-69">
          <mxGeometry y="220" width="250" height="30" as="geometry" />
        </mxCell>
        <mxCell id="ViyJ_vo8ujkGDNAvHGH1-80" value="" style="shape=partialRectangle;overflow=hidden;connectable=0;fillColor=#f5f5f5;top=0;left=0;bottom=0;right=0;fontColor=#333333;strokeColor=#666666;" vertex="1" parent="ViyJ_vo8ujkGDNAvHGH1-79">
          <mxGeometry width="30" height="30" as="geometry">
            <mxRectangle width="30" height="30" as="alternateBounds" />
          </mxGeometry>
        </mxCell>
        <mxCell id="ViyJ_vo8ujkGDNAvHGH1-81" value="CreatedAt (Date)" style="shape=partialRectangle;overflow=hidden;connectable=0;fillColor=#f5f5f5;top=0;left=0;bottom=0;right=0;align=left;spacingLeft=6;fontColor=#333333;strokeColor=#666666;" vertex="1" parent="ViyJ_vo8ujkGDNAvHGH1-79">
          <mxGeometry x="30" width="220" height="30" as="geometry">
            <mxRectangle width="220" height="30" as="alternateBounds" />
          </mxGeometry>
        </mxCell>
        <mxCell id="ViyJ_vo8ujkGDNAvHGH1-85" value="" style="endArrow=classic;html=1;rounded=0;entryX=0.644;entryY=0.01;entryDx=0;entryDy=0;entryPerimeter=0;" edge="1" parent="1" target="ViyJ_vo8ujkGDNAvHGH1-69">
          <mxGeometry relative="1" as="geometry">
            <mxPoint x="1480" y="760" as="sourcePoint" />
            <mxPoint x="1480" y="840" as="targetPoint" />
            <Array as="points" />
          </mxGeometry>
        </mxCell>
        <mxCell id="ViyJ_vo8ujkGDNAvHGH1-86" value="1" style="edgeLabel;resizable=0;html=1;;align=left;verticalAlign=bottom;" connectable="0" vertex="1" parent="ViyJ_vo8ujkGDNAvHGH1-85">
          <mxGeometry x="-1" relative="1" as="geometry">
            <mxPoint x="10" y="30" as="offset" />
          </mxGeometry>
        </mxCell>
        <mxCell id="ViyJ_vo8ujkGDNAvHGH1-87" value="n" style="edgeLabel;resizable=0;html=1;;align=right;verticalAlign=bottom;" connectable="0" vertex="1" parent="ViyJ_vo8ujkGDNAvHGH1-85">
          <mxGeometry x="1" relative="1" as="geometry">
            <mxPoint x="20" y="-4" as="offset" />
          </mxGeometry>
        </mxCell>
        <mxCell id="ViyJ_vo8ujkGDNAvHGH1-100" value="" style="shape=partialRectangle;collapsible=0;dropTarget=0;pointerEvents=0;points=[[0,0.5],[1,0.5]];portConstraint=eastwest;top=0;left=0;right=0;bottom=0;" vertex="1" parent="1">
          <mxGeometry x="1320" y="1000" width="250" height="30" as="geometry" />
        </mxCell>
        <mxCell id="ViyJ_vo8ujkGDNAvHGH1-101" value="" style="shape=partialRectangle;overflow=hidden;connectable=0;fillColor=none;top=0;left=0;bottom=0;right=0;" vertex="1" parent="ViyJ_vo8ujkGDNAvHGH1-100">
          <mxGeometry width="30" height="30" as="geometry">
            <mxRectangle width="30" height="30" as="alternateBounds" />
          </mxGeometry>
        </mxCell>
        <mxCell id="ViyJ_vo8ujkGDNAvHGH1-102" value="UserID (FK)" style="shape=partialRectangle;overflow=hidden;connectable=0;fillColor=none;top=0;left=0;bottom=0;right=0;align=left;spacingLeft=6;" vertex="1" parent="ViyJ_vo8ujkGDNAvHGH1-100">
          <mxGeometry x="30" width="220" height="30" as="geometry">
            <mxRectangle width="220" height="30" as="alternateBounds" />
          </mxGeometry>
        </mxCell>
        <mxCell id="ViyJ_vo8ujkGDNAvHGH1-103" value="" style="shape=partialRectangle;collapsible=0;dropTarget=0;pointerEvents=0;points=[[0,0.5],[1,0.5]];portConstraint=eastwest;top=0;left=0;right=0;bottom=0;" vertex="1" parent="1">
          <mxGeometry x="1320" y="1060" width="250" height="30" as="geometry" />
        </mxCell>
        <mxCell id="ViyJ_vo8ujkGDNAvHGH1-104" value="" style="shape=partialRectangle;overflow=hidden;connectable=0;fillColor=none;top=0;left=0;bottom=0;right=0;" vertex="1" parent="ViyJ_vo8ujkGDNAvHGH1-103">
          <mxGeometry width="30" height="30" as="geometry">
            <mxRectangle width="30" height="30" as="alternateBounds" />
          </mxGeometry>
        </mxCell>
        <mxCell id="ViyJ_vo8ujkGDNAvHGH1-105" value="CreatedAt (Date)" style="shape=partialRectangle;overflow=hidden;connectable=0;fillColor=none;top=0;left=0;bottom=0;right=0;align=left;spacingLeft=6;" vertex="1" parent="ViyJ_vo8ujkGDNAvHGH1-103">
          <mxGeometry x="30" width="220" height="30" as="geometry">
            <mxRectangle width="220" height="30" as="alternateBounds" />
          </mxGeometry>
        </mxCell>
        <mxCell id="ViyJ_vo8ujkGDNAvHGH1-107" value="Notification" style="shape=table;startSize=40;container=1;collapsible=1;childLayout=tableLayout;fixedRows=1;rowLines=0;fontStyle=1;align=center;resizeLast=1;fillColor=#dae8fc;strokeColor=#6c8ebf;" vertex="1" parent="1">
          <mxGeometry x="850" y="710" width="250" height="280" as="geometry" />
        </mxCell>
        <mxCell id="ViyJ_vo8ujkGDNAvHGH1-108" value="" style="shape=partialRectangle;collapsible=0;dropTarget=0;pointerEvents=0;points=[[0,0.5],[1,0.5]];portConstraint=eastwest;top=0;left=0;right=0;bottom=1;" vertex="1" parent="ViyJ_vo8ujkGDNAvHGH1-107">
          <mxGeometry y="40" width="250" height="30" as="geometry" />
        </mxCell>
        <mxCell id="ViyJ_vo8ujkGDNAvHGH1-109" value="" style="shape=partialRectangle;overflow=hidden;connectable=0;fillColor=none;top=0;left=0;bottom=0;right=0;fontStyle=1;" vertex="1" parent="ViyJ_vo8ujkGDNAvHGH1-108">
          <mxGeometry width="30" height="30" as="geometry">
            <mxRectangle width="30" height="30" as="alternateBounds" />
          </mxGeometry>
        </mxCell>
        <mxCell id="ViyJ_vo8ujkGDNAvHGH1-110" value="ID Primary Key" style="shape=partialRectangle;overflow=hidden;connectable=0;fillColor=none;top=0;left=0;bottom=0;right=0;align=left;spacingLeft=6;fontStyle=4;" vertex="1" parent="ViyJ_vo8ujkGDNAvHGH1-108">
          <mxGeometry x="30" width="220" height="30" as="geometry">
            <mxRectangle width="220" height="30" as="alternateBounds" />
          </mxGeometry>
        </mxCell>
        <mxCell id="ViyJ_vo8ujkGDNAvHGH1-111" value="" style="shape=partialRectangle;collapsible=0;dropTarget=0;pointerEvents=0;fillColor=#f5f5f5;points=[[0,0.5],[1,0.5]];portConstraint=eastwest;top=0;left=0;right=0;bottom=0;fontColor=#333333;strokeColor=#666666;" vertex="1" parent="ViyJ_vo8ujkGDNAvHGH1-107">
          <mxGeometry y="70" width="250" height="30" as="geometry" />
        </mxCell>
        <mxCell id="ViyJ_vo8ujkGDNAvHGH1-112" value="" style="shape=partialRectangle;overflow=hidden;connectable=0;fillColor=none;top=0;left=0;bottom=0;right=0;" vertex="1" parent="ViyJ_vo8ujkGDNAvHGH1-111">
          <mxGeometry width="30" height="30" as="geometry">
            <mxRectangle width="30" height="30" as="alternateBounds" />
          </mxGeometry>
        </mxCell>
        <mxCell id="ViyJ_vo8ujkGDNAvHGH1-113" value="NotTypeID" style="shape=partialRectangle;overflow=hidden;connectable=0;fillColor=none;top=0;left=0;bottom=0;right=0;align=left;spacingLeft=6;" vertex="1" parent="ViyJ_vo8ujkGDNAvHGH1-111">
          <mxGeometry x="30" width="220" height="30" as="geometry">
            <mxRectangle width="220" height="30" as="alternateBounds" />
          </mxGeometry>
        </mxCell>
        <mxCell id="ViyJ_vo8ujkGDNAvHGH1-114" value="" style="shape=partialRectangle;collapsible=0;dropTarget=0;pointerEvents=0;points=[[0,0.5],[1,0.5]];portConstraint=eastwest;top=0;left=0;right=0;bottom=0;" vertex="1" parent="ViyJ_vo8ujkGDNAvHGH1-107">
          <mxGeometry y="100" width="250" height="30" as="geometry" />
        </mxCell>
        <mxCell id="ViyJ_vo8ujkGDNAvHGH1-115" value="" style="shape=partialRectangle;overflow=hidden;connectable=0;fillColor=none;top=0;left=0;bottom=0;right=0;" vertex="1" parent="ViyJ_vo8ujkGDNAvHGH1-114">
          <mxGeometry width="30" height="30" as="geometry">
            <mxRectangle width="30" height="30" as="alternateBounds" />
          </mxGeometry>
        </mxCell>
        <mxCell id="ViyJ_vo8ujkGDNAvHGH1-116" value="TypeID   " style="shape=partialRectangle;overflow=hidden;connectable=0;fillColor=none;top=0;left=0;bottom=0;right=0;align=left;spacingLeft=6;" vertex="1" parent="ViyJ_vo8ujkGDNAvHGH1-114">
          <mxGeometry x="30" width="220" height="30" as="geometry">
            <mxRectangle width="220" height="30" as="alternateBounds" />
          </mxGeometry>
        </mxCell>
        <mxCell id="ViyJ_vo8ujkGDNAvHGH1-117" value="" style="shape=partialRectangle;collapsible=0;dropTarget=0;pointerEvents=0;fillColor=#dae8fc;points=[[0,0.5],[1,0.5]];portConstraint=eastwest;top=0;left=0;right=0;bottom=0;strokeColor=#6c8ebf;" vertex="1" parent="ViyJ_vo8ujkGDNAvHGH1-107">
          <mxGeometry y="130" width="250" height="30" as="geometry" />
        </mxCell>
        <mxCell id="ViyJ_vo8ujkGDNAvHGH1-118" value="" style="shape=partialRectangle;overflow=hidden;connectable=0;fillColor=#f5f5f5;top=0;left=0;bottom=0;right=0;fontColor=#333333;strokeColor=#666666;" vertex="1" parent="ViyJ_vo8ujkGDNAvHGH1-117">
          <mxGeometry width="30" height="30" as="geometry">
            <mxRectangle width="30" height="30" as="alternateBounds" />
          </mxGeometry>
        </mxCell>
        <mxCell id="ViyJ_vo8ujkGDNAvHGH1-119" value="RefID              " style="shape=partialRectangle;overflow=hidden;connectable=0;fillColor=#f5f5f5;top=0;left=0;bottom=0;right=0;align=left;spacingLeft=6;fontColor=#333333;strokeColor=#666666;" vertex="1" parent="ViyJ_vo8ujkGDNAvHGH1-117">
          <mxGeometry x="30" width="220" height="30" as="geometry">
            <mxRectangle width="220" height="30" as="alternateBounds" />
          </mxGeometry>
        </mxCell>
        <mxCell id="ViyJ_vo8ujkGDNAvHGH1-120" value="" style="shape=partialRectangle;collapsible=0;dropTarget=0;pointerEvents=0;fillColor=#dae8fc;points=[[0,0.5],[1,0.5]];portConstraint=eastwest;top=0;left=0;right=0;bottom=0;strokeColor=#6c8ebf;" vertex="1" parent="ViyJ_vo8ujkGDNAvHGH1-107">
          <mxGeometry y="160" width="250" height="30" as="geometry" />
        </mxCell>
        <mxCell id="ViyJ_vo8ujkGDNAvHGH1-121" value="" style="shape=partialRectangle;overflow=hidden;connectable=0;fillColor=#f5f5f5;top=0;left=0;bottom=0;right=0;fontColor=#333333;strokeColor=#666666;" vertex="1" parent="ViyJ_vo8ujkGDNAvHGH1-120">
          <mxGeometry width="30" height="30" as="geometry">
            <mxRectangle width="30" height="30" as="alternateBounds" />
          </mxGeometry>
        </mxCell>
        <mxCell id="ViyJ_vo8ujkGDNAvHGH1-122" value="ReceptorID (FK) " style="shape=partialRectangle;overflow=hidden;connectable=0;fillColor=#f5f5f5;top=0;left=0;bottom=0;right=0;align=left;spacingLeft=6;fontColor=#333333;strokeColor=#666666;" vertex="1" parent="ViyJ_vo8ujkGDNAvHGH1-120">
          <mxGeometry x="30" width="220" height="30" as="geometry">
            <mxRectangle width="220" height="30" as="alternateBounds" />
          </mxGeometry>
        </mxCell>
        <mxCell id="ViyJ_vo8ujkGDNAvHGH1-123" value="" style="shape=partialRectangle;collapsible=0;dropTarget=0;pointerEvents=0;points=[[0,0.5],[1,0.5]];portConstraint=eastwest;top=0;left=0;right=0;bottom=0;" vertex="1" parent="ViyJ_vo8ujkGDNAvHGH1-107">
          <mxGeometry y="190" width="250" height="30" as="geometry" />
        </mxCell>
        <mxCell id="ViyJ_vo8ujkGDNAvHGH1-124" value="" style="shape=partialRectangle;overflow=hidden;connectable=0;fillColor=#f5f5f5;top=0;left=0;bottom=0;right=0;fontColor=#333333;strokeColor=#666666;" vertex="1" parent="ViyJ_vo8ujkGDNAvHGH1-123">
          <mxGeometry width="30" height="30" as="geometry">
            <mxRectangle width="30" height="30" as="alternateBounds" />
          </mxGeometry>
        </mxCell>
        <mxCell id="ViyJ_vo8ujkGDNAvHGH1-125" value="SenderID (FK)  " style="shape=partialRectangle;overflow=hidden;connectable=0;fillColor=#f5f5f5;top=0;left=0;bottom=0;right=0;align=left;spacingLeft=6;fontColor=#333333;strokeColor=#666666;" vertex="1" parent="ViyJ_vo8ujkGDNAvHGH1-123">
          <mxGeometry x="30" width="220" height="30" as="geometry">
            <mxRectangle width="220" height="30" as="alternateBounds" />
          </mxGeometry>
        </mxCell>
        <mxCell id="ViyJ_vo8ujkGDNAvHGH1-132" value="" style="shape=partialRectangle;collapsible=0;dropTarget=0;pointerEvents=0;fillColor=#dae8fc;points=[[0,0.5],[1,0.5]];portConstraint=eastwest;top=0;left=0;right=0;bottom=0;strokeColor=#6c8ebf;" vertex="1" parent="ViyJ_vo8ujkGDNAvHGH1-107">
          <mxGeometry y="220" width="250" height="30" as="geometry" />
        </mxCell>
        <mxCell id="ViyJ_vo8ujkGDNAvHGH1-133" value="" style="shape=partialRectangle;overflow=hidden;connectable=0;fillColor=#f5f5f5;top=0;left=0;bottom=0;right=0;fontColor=#333333;strokeColor=#666666;" vertex="1" parent="ViyJ_vo8ujkGDNAvHGH1-132">
          <mxGeometry width="30" height="30" as="geometry">
            <mxRectangle width="30" height="30" as="alternateBounds" />
          </mxGeometry>
        </mxCell>
        <mxCell id="ViyJ_vo8ujkGDNAvHGH1-134" value="IsReaded (Bool)" style="shape=partialRectangle;overflow=hidden;connectable=0;fillColor=#f5f5f5;top=0;left=0;bottom=0;right=0;align=left;spacingLeft=6;fontColor=#333333;strokeColor=#666666;" vertex="1" parent="ViyJ_vo8ujkGDNAvHGH1-132">
          <mxGeometry x="30" width="220" height="30" as="geometry">
            <mxRectangle width="220" height="30" as="alternateBounds" />
          </mxGeometry>
        </mxCell>
        <mxCell id="ViyJ_vo8ujkGDNAvHGH1-126" value="" style="shape=partialRectangle;collapsible=0;dropTarget=0;pointerEvents=0;fillColor=#dae8fc;points=[[0,0.5],[1,0.5]];portConstraint=eastwest;top=0;left=0;right=0;bottom=0;strokeColor=#6c8ebf;" vertex="1" parent="ViyJ_vo8ujkGDNAvHGH1-107">
          <mxGeometry y="250" width="250" height="30" as="geometry" />
        </mxCell>
        <mxCell id="ViyJ_vo8ujkGDNAvHGH1-127" value="" style="shape=partialRectangle;overflow=hidden;connectable=0;fillColor=#f5f5f5;top=0;left=0;bottom=0;right=0;fontColor=#333333;strokeColor=#666666;" vertex="1" parent="ViyJ_vo8ujkGDNAvHGH1-126">
          <mxGeometry width="30" height="30" as="geometry">
            <mxRectangle width="30" height="30" as="alternateBounds" />
          </mxGeometry>
        </mxCell>
        <mxCell id="ViyJ_vo8ujkGDNAvHGH1-128" value=" CreatedAt (Date)" style="shape=partialRectangle;overflow=hidden;connectable=0;fillColor=#f5f5f5;top=0;left=0;bottom=0;right=0;align=left;spacingLeft=6;fontColor=#333333;strokeColor=#666666;" vertex="1" parent="ViyJ_vo8ujkGDNAvHGH1-126">
          <mxGeometry x="30" width="220" height="30" as="geometry">
            <mxRectangle width="220" height="30" as="alternateBounds" />
          </mxGeometry>
        </mxCell>
        <mxCell id="ViyJ_vo8ujkGDNAvHGH1-129" value="" style="endArrow=classic;html=1;rounded=0;entryX=1.016;entryY=0.856;entryDx=0;entryDy=0;entryPerimeter=0;exitX=-0.012;exitY=0.341;exitDx=0;exitDy=0;exitPerimeter=0;" edge="1" parent="1" source="ViyJ_vo8ujkGDNAvHGH1-73">
          <mxGeometry relative="1" as="geometry">
            <mxPoint x="1310" y="920" as="sourcePoint" />
            <mxPoint x="1100" y="839.9999999999999" as="targetPoint" />
            <Array as="points">
              <mxPoint x="1260" y="920" />
              <mxPoint x="1200" y="920" />
              <mxPoint x="1200" y="840" />
            </Array>
          </mxGeometry>
        </mxCell>
        <mxCell id="ViyJ_vo8ujkGDNAvHGH1-130" value="1" style="edgeLabel;resizable=0;html=1;;align=left;verticalAlign=bottom;" connectable="0" vertex="1" parent="ViyJ_vo8ujkGDNAvHGH1-129">
          <mxGeometry x="-1" relative="1" as="geometry">
            <mxPoint x="-42" y="30" as="offset" />
          </mxGeometry>
        </mxCell>
        <mxCell id="ViyJ_vo8ujkGDNAvHGH1-131" value="n" style="edgeLabel;resizable=0;html=1;;align=right;verticalAlign=bottom;" connectable="0" vertex="1" parent="ViyJ_vo8ujkGDNAvHGH1-129">
          <mxGeometry x="1" relative="1" as="geometry">
            <mxPoint x="20" y="-4" as="offset" />
          </mxGeometry>
        </mxCell>
        <mxCell id="ViyJ_vo8ujkGDNAvHGH1-136" value="" style="shape=partialRectangle;collapsible=0;dropTarget=0;pointerEvents=0;fillColor=#dae8fc;points=[[0,0.5],[1,0.5]];portConstraint=eastwest;top=0;left=0;right=0;bottom=0;strokeColor=#6c8ebf;" vertex="1" parent="1">
          <mxGeometry x="1710" y="1030" width="250" height="30" as="geometry" />
        </mxCell>
        <mxCell id="ViyJ_vo8ujkGDNAvHGH1-137" value="" style="shape=partialRectangle;overflow=hidden;connectable=0;fillColor=#f5f5f5;top=0;left=0;bottom=0;right=0;fontColor=#333333;strokeColor=#666666;" vertex="1" parent="ViyJ_vo8ujkGDNAvHGH1-136">
          <mxGeometry width="30" height="30" as="geometry">
            <mxRectangle width="30" height="30" as="alternateBounds" />
          </mxGeometry>
        </mxCell>
        <mxCell id="ViyJ_vo8ujkGDNAvHGH1-138" value="CreatedAt (Date)" style="shape=partialRectangle;overflow=hidden;connectable=0;fillColor=#f5f5f5;top=0;left=0;bottom=0;right=0;align=left;spacingLeft=6;fontColor=#333333;strokeColor=#666666;" vertex="1" parent="ViyJ_vo8ujkGDNAvHGH1-136">
          <mxGeometry x="30" width="220" height="30" as="geometry">
            <mxRectangle width="220" height="30" as="alternateBounds" />
          </mxGeometry>
        </mxCell>
        <mxCell id="ViyJ_vo8ujkGDNAvHGH1-139" value="" style="shape=partialRectangle;collapsible=0;dropTarget=0;pointerEvents=0;points=[[0,0.5],[1,0.5]];portConstraint=eastwest;top=0;left=0;right=0;bottom=0;" vertex="1" parent="1">
          <mxGeometry x="850" y="870" width="250" height="30" as="geometry" />
        </mxCell>
        <mxCell id="ViyJ_vo8ujkGDNAvHGH1-140" value="" style="shape=partialRectangle;overflow=hidden;connectable=0;fillColor=none;top=0;left=0;bottom=0;right=0;" vertex="1" parent="ViyJ_vo8ujkGDNAvHGH1-139">
          <mxGeometry width="30" height="30" as="geometry">
            <mxRectangle width="30" height="30" as="alternateBounds" />
          </mxGeometry>
        </mxCell>
        <mxCell id="ViyJ_vo8ujkGDNAvHGH1-141" value="ReceptorID (FK)" style="shape=partialRectangle;overflow=hidden;connectable=0;fillColor=none;top=0;left=0;bottom=0;right=0;align=left;spacingLeft=6;" vertex="1" parent="ViyJ_vo8ujkGDNAvHGH1-139">
          <mxGeometry x="30" width="220" height="30" as="geometry">
            <mxRectangle width="220" height="30" as="alternateBounds" />
          </mxGeometry>
        </mxCell>
        <mxCell id="ViyJ_vo8ujkGDNAvHGH1-142" value="" style="shape=partialRectangle;collapsible=0;dropTarget=0;pointerEvents=0;points=[[0,0.5],[1,0.5]];portConstraint=eastwest;top=0;left=0;right=0;bottom=0;" vertex="1" parent="1">
          <mxGeometry x="850" y="930" width="250" height="30" as="geometry" />
        </mxCell>
        <mxCell id="ViyJ_vo8ujkGDNAvHGH1-143" value="" style="shape=partialRectangle;overflow=hidden;connectable=0;fillColor=none;top=0;left=0;bottom=0;right=0;" vertex="1" parent="ViyJ_vo8ujkGDNAvHGH1-142">
          <mxGeometry width="30" height="30" as="geometry">
            <mxRectangle width="30" height="30" as="alternateBounds" />
          </mxGeometry>
        </mxCell>
        <mxCell id="ViyJ_vo8ujkGDNAvHGH1-144" value="IsReaded (Bool)" style="shape=partialRectangle;overflow=hidden;connectable=0;fillColor=none;top=0;left=0;bottom=0;right=0;align=left;spacingLeft=6;" vertex="1" parent="ViyJ_vo8ujkGDNAvHGH1-142">
          <mxGeometry x="30" width="220" height="30" as="geometry">
            <mxRectangle width="220" height="30" as="alternateBounds" />
          </mxGeometry>
        </mxCell>
      </root>
    </mxGraphModel>
  </diagram>
</mxfile>
